<?xml version="1.0" encoding="UTF-8" standalone="no"?>
<!-- Created with Inkscape (http://www.inkscape.org/) -->

<svg
   xmlns:dc="http://purl.org/dc/elements/1.1/"
   xmlns:cc="http://creativecommons.org/ns#"
   xmlns:rdf="http://www.w3.org/1999/02/22-rdf-syntax-ns#"
   xmlns:svg="http://www.w3.org/2000/svg"
   xmlns="http://www.w3.org/2000/svg"
   xmlns:sodipodi="http://sodipodi.sourceforge.net/DTD/sodipodi-0.dtd"
   xmlns:inkscape="http://www.inkscape.org/namespaces/inkscape"
   width="766.68286mm"
   height="1246.7383mm"
   viewBox="0 0 766.68286 1246.7383"
   version="1.1"
   id="svg2115"
   inkscape:version="0.92.5 (2060ec1f9f, 2020-04-08)"
   sodipodi:docname="full-logo.svg"
   inkscape:export-filename="/home/shaman/Dropbox/wanderlisi/full-logo.png"
   inkscape:export-xdpi="10.435866"
   inkscape:export-ydpi="10.435866">
  <defs
     id="defs2109" />
  <sodipodi:namedview
     id="base"
     pagecolor="#ffffff"
     bordercolor="#666666"
     borderopacity="1.0"
     inkscape:pageopacity="0.0"
     inkscape:pageshadow="2"
     inkscape:zoom="0.13759082"
     inkscape:cx="1079.9664"
     inkscape:cy="2794.1445"
     inkscape:document-units="mm"
     inkscape:current-layer="layer1"
     showgrid="false"
     inkscape:window-width="1920"
     inkscape:window-height="1029"
     inkscape:window-x="0"
     inkscape:window-y="0"
     inkscape:window-maximized="1"
     fit-margin-top="0"
     fit-margin-left="0"
     fit-margin-right="0"
     fit-margin-bottom="0" />
  <metadata
     id="metadata2112">
    <rdf:RDF>
      <cc:Work
         rdf:about="">
        <dc:format>image/svg+xml</dc:format>
        <dc:type
           rdf:resource="http://purl.org/dc/dcmitype/StillImage" />
        <dc:title></dc:title>
      </cc:Work>
    </rdf:RDF>
  </metadata>
  <g
     inkscape:label="Layer 1"
     inkscape:groupmode="layer"
     id="layer1"
     transform="translate(168.29904,383.29243)">
    <path
       style="display:inline;fill:#afc1c5;stroke-width:0.26458332"
       d="m 38.185972,117.60264 c -0.0845,-0.022 -0.16141,-0.038 -0.24546,-0.06 -0.1876,0.033 -0.44049,0.1634 -0.85886,0.5866 0.46565,1.8621 1.40923,-0.071 1.10432,-0.5266 z"
       id="path1346"
       inkscape:connector-curvature="0" />
    <path
       style="display:inline;fill:#afc1c5;stroke-width:0.26458332"
       d="m 142.18635,139.77394 c 2.44668,2.0565 3.55529,4.8856 2.75072,8.8248 -30.28408,24.3546 -54.327688,60.079 -81.283918,88.1786 -36.95549,46.5067 -77.59445,90.9999 -104.34195,144.2165 -22.54263,17.5508 -35.20928,51.7038 -25.0021,69.9389 -32.13868,28.8262 -36.822352,101.689 11.22671,112.4525 42.76056,5.2923 -25.39298,57.9634 26.25163,61.4913 29.00741978,11.3532 71.75283,20.624 40.96081,63.2722 -40.37544,-4.277 -81.54124,-5.4534 -121.452032,3.3832 -29.78433,7.8017 -71.41142,33.8188 -52.39628,69.3431 19.62948,11.4872 40.36286,22.5155 61.454132,32.4269 27.94176,5.0651 51.74002,26.5806 80.55581,26.8862 45.12292,18.5991 92.54606,30.9926 140.838438,37.6634 1.95525,-0.026 4.38709,0.7805 5.96241,-0.9318 8.50284,-29.3724 39.51621,1.9548 59.74004,-8.8376 40.17766,0.9462 80.83626,0.8414 114.34651,-10.3131 25.40722,-11.2609 53.97923,-16.2584 80.80695,-21.7139 27.04164,-6.7452 5.24433,-36.5135 6.40324,-54.6101 -2.773,-25.4306 -14.98262,-49.54 -17.154,-75.197 -14.11515,-20.073 35.96521,-21.5498 50.69147,-25.8708 1.47489,-23.1261 -55.99766,-78.1109 -4.13978,-46.1134 42.74331,6.4138 63.90532,-21.5357 102.58336,-33.3453 29.4738,-29.2038 75.9142,-61.2935 70.8634,-107.4136 -12.6458,-47.6727 -28.375,-95.119 -51.3999,-138.8328 -30.5539,-34.2351 -25.9876,-69.3692 -49.3495,-107.7273 -22.06913,-37.637 -59.91065,-72.6833 -103.80606,-78.2748 -12.23537,-7.1687 -54.09398,13.4779 -61.84998,8.9276 -3.11727,2.1897 -6.21414,4.3881 -9.24438,6.6322 -1.64177,1.2158 -3.26692,2.4433 -4.87104,3.6866 -1.60411,1.2432 -3.18698,2.5023 -4.74493,3.7811 0.13579,1.9867 0.20402,3.7732 0.20929,5.3738 0.005,1.6007 -0.0526,3.0154 -0.16846,4.2587 -0.11592,1.2433 -0.29001,2.3152 -0.51779,3.2298 -0.1139,0.4573 -0.24127,0.8753 -0.38137,1.2557 -0.14012,0.3805 -0.29321,0.7237 -0.45839,1.0309 -0.16516,0.3073 -0.34266,0.5785 -0.53174,0.816 -0.18907,0.2376 -0.38973,0.4415 -0.60153,0.6129 -0.21177,0.1715 -0.43479,0.3107 -0.66815,0.4196 -0.23336,0.109 -0.47696,0.1877 -0.73072,0.2377 -0.25377,0.05 -0.51763,0.072 -0.79063,0.066 -0.27303,0 -0.55539,-0.037 -0.84648,-0.095 -0.58214,-0.1142 -1.19894,-0.3289 -1.8464,-0.6289 -0.64743,-0.2999 -1.32538,-0.6855 -2.0288,-1.1425 -0.70344,-0.4571 -1.43269,-0.9855 -2.18281,-1.571 -0.75012,-0.5855 -1.5209,-1.2277 -2.30841,-1.9131 -0.78748,-0.6853 -1.59155,-1.4138 -2.40707,-2.1704 -1.63108,-1.5131 -3.3087,-3.1397 -4.99608,-4.7661 -1.6874,-1.6264 -3.38426,-3.2522 -5.05346,-4.763 -0.55211,-1.0652 -1.14281,-2.0631 -1.76887,-2.9972 -0.62608,-0.9342 -1.2877,-1.8045 -1.98231,-2.6159 -0.69464,-0.8114 -1.42246,-1.5638 -2.18022,-2.2608 -0.7578,-0.697 -1.54557,-1.3387 -2.36112,-1.9296 -0.81552,-0.591 -1.65854,-1.131 -2.52645,-1.6242 -0.86791,-0.4932 -1.76093,-0.9398 -2.67581,-1.3436 -0.91485,-0.4038 -1.85166,-0.7651 -2.8081,-1.0878 -0.95642,-0.3227 -1.93228,-0.6068 -2.92489,-0.8568 -0.99259,-0.25 -2.00176,-0.4656 -3.02512,-0.6511 -1.02338,-0.1856 -2.06065,-0.3408 -3.10938,-0.4703 -1.04873,-0.1294 -2.10889,-0.2335 -3.17759,-0.3152 -1.06871,-0.082 -2.14599,-0.1412 -3.22924,-0.1834 -2.16657,-0.085 -4.35703,-0.099 -6.5495,-0.076 -2.19244,0.023 -4.38721,0.084 -6.56238,0.1478 -2.17517,0.064 -4.33088,0.1324 -6.44559,0.171 -2.11471,0.039 -4.18807,0.048 -6.19911,-0.01 -1.00552,-0.027 -1.99575,-0.07 -2.96725,-0.1318 -0.97152,-0.062 -1.92458,-0.1444 -2.85668,-0.2506 -0.9321,-0.1062 -1.8433,-0.2364 -2.73058,-0.3948 -0.88731,-0.1584 -1.75088,-0.3449 -2.58797,-0.5638 -0.83709,-0.219 -1.64729,-0.4703 -2.42879,-0.7581 -0.78148,-0.2878 -1.53416,-0.6122 -2.25465,-0.9772 -0.72046,-0.365 -1.40883,-0.7706 -2.0629,-1.2211 -0.65408,-0.4506 -1.27395,-0.946 -1.85624,-1.4904 -0.58227,-0.5444 -1.12684,-1.1378 -1.63193,-1.7844 -0.50508,-0.6465 -0.9702,-1.3461 -1.39268,-2.1032 -0.42249,-0.7571 -0.80238,-1.5715 -1.13689,-2.4474 -0.33449,-0.8759 -0.62397,-1.8138 -0.86506,-2.8169 -0.64812,-0.5535 -1.31127,-1.0667 -1.98903,-1.542 -0.67775,-0.4753 -1.36998,-0.9123 -2.07584,-1.3136 -0.70585,-0.4014 -1.42557,-0.767 -2.15799,-1.0987 -0.73242,-0.3316 -1.47757,-0.6293 -2.23502,-0.8955 -0.75745,-0.2662 -1.52691,-0.5009 -2.30788,-0.7059 -0.78094,-0.2051 -1.57316,-0.3805 -2.37606,-0.5287 -0.80293,-0.1482 -1.61682,-0.2692 -2.44018,-0.3648 -0.82333,-0.096 -1.65629,-0.1661 -2.49854,-0.2134 -1.68449,-0.095 -3.4054,-0.097 -5.15628,-0.024 -1.75088,0.073 -3.53163,0.2204 -5.33661,0.4263 -1.80502,0.206 -3.63398,0.4702 -5.48082,0.7752 -1.84685,0.3049 -3.71187,0.6504 -5.58829,1.0201 -3.75285,0.7391 -7.55264,1.5732 -11.3502,2.3657 -1.60248,0.3344 -3.20276,0.6535 -4.80074,0.9627 z m 52.53424,543.7384 c 12.55086,0.1143 26.09146,1.9614 36.1854,1.6753 35.37196,41.8138 -50.31121,33.8142 -67.97622,61.6851 -19.33448,2.5587 0.15753,-21.9168 -2.18385,-31.5981 -5.11331,-27.3307 13.05661,-31.9529 33.97467,-31.7623 z"
       id="path1344"
       inkscape:connector-curvature="0" />
    <ellipse
       style="display:inline;opacity:1;fill:#ffffff;fill-opacity:1;fill-rule:evenodd;stroke:none;stroke-width:0.67769992;stroke-linecap:round;stroke-linejoin:round;stroke-miterlimit:4;stroke-dasharray:none;stroke-opacity:1"
       id="path820-3"
       cx="-126.16322"
       cy="-92.263062"
       rx="27.795856"
       ry="32.354321" />
    <ellipse
       style="display:inline;opacity:1;fill:#ffffff;fill-opacity:1;fill-rule:evenodd;stroke:none;stroke-width:1.56500006;stroke-linecap:round;stroke-linejoin:round;stroke-miterlimit:4;stroke-dasharray:none;stroke-opacity:1"
       id="path820"
       cx="65.826897"
       cy="-108.01495"
       rx="74.045784"
       ry="64.768799" />
    <path
       style="display:inline;fill:#afc1c5;stroke-width:0.26458332"
       d="m 142.18635,139.77394 c 1.59798,-0.3092 3.19826,-0.6284 4.80074,-0.9627 3.79756,-0.7925 7.59735,-1.6266 11.3502,-2.3658 1.87642,-0.3696 3.74144,-0.7152 5.58829,-1.0201 1.84684,-0.3049 3.6758,-0.5692 5.48082,-0.7751 1.80498,-0.206 3.58573,-0.3536 5.33661,-0.4264 1.75088,-0.073 3.47179,-0.07 5.15628,0.024 0.84225,0.047 1.67521,0.1178 2.49854,0.2135 0.82336,0.096 1.63725,0.2166 2.44018,0.3648 0.8029,0.1482 1.59512,0.3236 2.37606,0.5287 0.78097,0.205 1.55043,0.4396 2.30788,0.7058 0.75745,0.2663 1.5026,0.564 2.23502,0.8956 0.73242,0.3316 1.45214,0.6973 2.15799,1.0986 0.70586,0.4013 1.39809,0.8384 2.07584,1.3137 0.67776,0.4753 1.34091,0.9884 1.98903,1.542 0.24109,1.0031 0.53057,1.9409 0.86506,2.8169 0.33451,0.8759 0.7144,1.6903 1.13689,2.4474 0.42248,0.757 0.8876,1.4566 1.39268,2.1032 0.50509,0.6465 1.04966,1.24 1.63193,1.7844 0.58229,0.5444 1.20216,1.0398 1.85624,1.4903 0.65407,0.4505 1.34244,0.8561 2.0629,1.2211 0.72049,0.365 1.47317,0.6894 2.25465,0.9772 0.7815,0.2878 1.5917,0.5392 2.42879,0.7581 0.83709,0.219 1.70066,0.4054 2.58797,0.5638 0.88728,0.1584 1.79848,0.2886 2.73058,0.3948 0.9321,0.1062 1.88516,0.1883 2.85668,0.2507 0.9715,0.062 1.96173,0.1049 2.96725,0.1317 2.01104,0.054 4.0844,0.044 6.19911,0.01 2.11471,-0.039 4.27042,-0.1068 6.44559,-0.171 2.17517,-0.064 4.36994,-0.1246 6.56238,-0.1478 2.19247,-0.023 4.38293,-0.01 6.5495,0.076 1.08325,0.042 2.16053,0.1018 3.22924,0.1835 1.0687,0.082 2.12886,0.1857 3.17759,0.3152 1.04873,0.1295 2.086,0.2847 3.10938,0.4703 1.02336,0.1855 2.03253,0.4011 3.02512,0.6511 0.99261,0.25 1.96847,0.5341 2.92489,0.8568 0.95644,0.3227 1.89325,0.684 2.8081,1.0878 0.91488,0.4038 1.8079,0.8504 2.67581,1.3436 0.86791,0.4931 1.71093,1.0332 2.52645,1.6241 0.81555,0.591 1.60332,1.2326 2.36112,1.9296 0.75776,0.697 1.48558,1.4495 2.18022,2.2609 0.69461,0.8114 1.35623,1.6817 1.98231,2.6158 0.62606,0.9342 1.21676,1.9321 1.76887,2.9973 1.6692,1.5108 3.36606,3.1366 5.05346,4.763 1.68738,1.6264 3.365,3.253 4.99608,4.7661 0.81552,0.7566 1.61959,1.4851 2.40707,2.1704 0.78751,0.6854 1.55829,1.3276 2.30841,1.9131 0.75012,0.5855 1.47937,1.1139 2.18281,1.5709 0.70342,0.4571 1.38137,0.8427 2.0288,1.1426 0.64746,0.3 1.26426,0.5146 1.8464,0.6289 0.29109,0.057 0.57345,0.089 0.84648,0.095 0.273,0 0.53686,-0.016 0.79063,-0.066 0.25376,-0.05 0.49736,-0.1287 0.73072,-0.2377 0.23336,-0.1089 0.45638,-0.2481 0.66815,-0.4196 0.2118,-0.1715 0.41246,-0.3753 0.60153,-0.6129 0.18908,-0.2375 0.36658,-0.5087 0.53174,-0.816 0.16518,-0.3072 0.31827,-0.6504 0.45839,-1.0309 0.1401,-0.3805 0.26747,-0.7985 0.38137,-1.2557 0.22778,-0.9146 0.40187,-1.9865 0.51779,-3.2298 0.11591,-1.2434 0.17375,-2.658 0.16846,-4.2587 -0.005,-1.6007 -0.0735,-3.3872 -0.20929,-5.3738 1.55795,-1.2788 3.14082,-2.5379 4.74493,-3.7812 1.60412,-1.2432 3.22927,-2.4708 4.87104,-3.6866 3.03024,-2.2441 6.12711,-4.4424 9.24438,-6.6321 -2.01515,-1.1823 -1.76358,-4.0388 1.94977,-9.5576 33.37597,-39.972 58.57454,-87.315072 77.16324,-135.686282 15.17287,-36.44778 25.21146,-75.06121 33.89871,-114.078308 0.3035,-41.86828 8.76371,-84.54751 4.49119,-127.36791 -11.61724,-42.02191 2.15675,-109.71794 -47.35732,-125.95362 -64.51745,-24.20901 -136.33415,-27.34128 -203.46458,-13.17078 -79.2992,10.01639 -154.820348,43.64154 -219.364918,90.24875 -9.84425,22.79271 27.56026978,32.59201 36.2122398,52.096 31.1845402,21.72161 -23.2057698,30.60282 -37.4250798,45.54353 -34.24418,27.80069 -88.670162,47.42376 -85.922932,98.112328 -21.57522,14.33271 -22.12701,32.35327 -10.573,53.99569 23.27312,40.8482 49.871552,85.46216 93.106992,106.89838 19.0263,7.25538 29.0319098,-12.84507 43.06197,-20.57447 18.47911,1.19919 4.36971,21.62042 -0.0703,30.18163 -8.3327802,7.77906 -10.0638702,18.610562 3.6344,21.089662 13.92685,8.2429 7.07149,1.6572 18.67793,7.1174 1.39824,0.2824 2.90307,0.6404 4.4757,1.0459 0.11216,-0.019 0.19893,-0.01 0.24546,0.06 11.49579,2.9912 27.06128,8.8522 39.63892,12.545 16.0115,6.7263 53.497168,0.4947 64.361458,9.6263 z M 88.237182,-145.44481 c 0.31985,-0.26874 2.81423,2.13719 6.52363,8.02378 -4.98882,-4.81169 -6.84349,-7.75507 -6.52363,-8.02378 z m -31.59652,2.3373 c 2.2962,0.0698 4.66494,0.65894 7.07967,1.8552 30.43895,9.089 55.481168,28.37467 62.409618,59.742058 -0.4219,10.7474 -19.70735,14.443 -30.512348,24.51531 -5.3911,4.32171 -9.702,-8.91945 -16.0109,0.18344 -10.84039,-10.97489 -34.46877,2.21488 -45.22463,-22.21982 -15.35568,-16.90491 0.062,-64.750848 22.25859,-64.076188 z m -26.48056,6.77685 c 2.71043,-0.23175 -3.4414,7.78492 -15.05851,19.0629 -5.5818202,4.7957 0.14046,-9.67313 -0.12557,-8.66044 8.7412,-7.1548 13.55782,-10.26339 15.18408,-10.40246 z"
       id="path1219"
       inkscape:connector-curvature="0"
       sodipodi:nodetypes="cccssccsscccccccscscscssccccccccccsscccscccccccccccsscccccsscsccccccccccccccccccccccccccccccccccccc" />
    <path
       style="display:inline;fill:#ad40c0;stroke-width:0.26458332"
       d="m -85.043208,692.97264 c 0.0892,-0.011 0.17845,-0.021 0.26769,-0.032 -0.14191,-0.1396 -0.2136,-0.078 -0.26769,0.032 z"
       id="path1357"
       inkscape:connector-curvature="0" />
    <path
       style="display:inline;fill:#ad40c0;stroke-width:0.26458332"
       d="m 183.26186,134.88634 c -42.22697,5.1138 -53.48867,16.2903 -72.12944,48.2715 -27.048248,33.4971 -59.393748,63.8907 -84.040858,100.1505 -28.7495302,30.71 -50.28619,66.3051 -70.00814,102.755 -49.82328,33.0609 -20.88504,83.265 19.5399,107.5851 17.4816198,38.2823 -38.48419,117.1693 -20.12591,123.7134 27.87094,12.6916 94.71613,20.9731 56.20019,75.0305 -22.3841902,-5.8803 -47.58792,-6.8819 -70.2386,-1.6314 -8.88605,0.4107 -18.03971,1.0905 -27.23452,2.1797 0.0575,0.056 0.11677,0.1198 0.18862,0.2429 -0.46795,0.8017 -0.59893,0.078 -0.45631,-0.2109 -20.516202,2.4505 -41.246792,7.1784 -59.801002,17.1267 -12.09621,11.789 -21.64906,26.8368 -17.70434,44.931 16.15773,14.3123 36.9099,24.5203 57.19444,33.0275 28.308752,7.847 53.441892,26.7889 82.335032,30.1367 43.31898,15.1746 87.15891,29.2428 132.596568,36.6525 30.58739,-15.7108 46.54508,-7.6255 84.00521,-8.2041 35.35582,2.9042 70.0991,-6.1286 104.46133,-8.1644 24.96233,-14.5221 55.3524,-16.5081 82.73138,-23.9619 20.2643,-2.8191 12.44975,-23.8575 8.95035,-38.4327 -4.91586,-17.3421 -5.24254,-35.2819 -11.02104,-52.557 -5.6887,-24.5922 -28.28702,-62.3605 18.67535,-54.452 43.63723,0.39 14.7977,-41.0485 -2.81429,-65.9402 -2.2575,-2.0679 -3.98063,-4.6815 -5.34284,-7.6414 -1.75246,-2.5458 -3.27811,-4.8344 -4.23796,-6.553 -10.87451,31.8678 -45.74096,68.2753 -79.69488,62.5827 -39.50314,10.5406 -57.54053,-76.3981 -49.27711,-81.379 32.59455,-5.2527 84.34353,-5.5302 113.8773,-21.9589 15.44185,3.0311 11.6654,30.6483 19.33265,47.3082 1.53564,2.2309 3.42953,4.9373 5.34284,7.6414 0.38312,0.351 0.77026,0.698 1.18494,1.0165 25.33507,29.2407 66.2365,18.2901 85.87279,-6.1996 44.00951,-12.8275 75.87681,-48.9796 101.82271,-85.8826 24.3772,-39.9806 -10.8892,-84.3912 -19.3187,-124.6493 -6.9573,-42.8185 -52.8217,-76.4972 -53.8675,-114.1299 -24.11502,-88.4076 -99.79024,-135.2797 -184.17171,-113.5073 -3.33804,2.3397 -6.6456,4.6932 -9.88621,7.0931 -1.64177,1.2158 -3.26692,2.4433 -4.87104,3.6866 -1.60411,1.2433 -3.18751,2.5023 -4.74543,3.7811 0.13576,1.9867 0.20402,3.7732 0.20929,5.3739 0.005,1.6007 -0.0521,3.0153 -0.16796,4.2586 -0.11592,1.2434 -0.29001,2.3152 -0.51779,3.2298 -0.1139,0.4573 -0.24127,0.8753 -0.38137,1.2558 -0.14012,0.3804 -0.29321,0.7231 -0.45839,1.0304 -0.16516,0.3072 -0.34266,0.5789 -0.53174,0.8165 -0.18907,0.2375 -0.38973,0.4414 -0.60153,0.6128 -0.21177,0.1715 -0.43479,0.3107 -0.66815,0.4197 -0.23336,0.1089 -0.47696,0.1871 -0.73072,0.2372 -0.25377,0.05 -0.51763,0.072 -0.79063,0.066 -0.27303,-0.01 -0.55539,-0.037 -0.84648,-0.095 -0.58214,-0.1143 -1.19894,-0.3285 -1.8464,-0.6284 -0.64743,-0.3 -1.32538,-0.6856 -2.0288,-1.1426 -0.70344,-0.457 -1.43269,-0.9855 -2.18281,-1.5709 -0.75012,-0.5855 -1.52143,-1.2283 -2.30891,-1.9136 -0.78748,-0.6854 -1.59105,-1.4133 -2.40657,-2.1699 -1.63108,-1.5132 -3.30923,-3.1402 -4.99661,-4.7666 -1.68738,-1.6265 -3.38426,-3.2523 -5.05343,-4.7631 -0.55213,-1.0651 -1.14861,-2.064 -1.78697,-3.0008 -0.63839,-0.9368 -1.31853,-1.8116 -2.03658,-2.6283 -0.71805,-0.8167 -1.47442,-1.5751 -2.26549,-2.28 -0.79108,-0.7047 -1.61674,-1.3558 -2.47428,-1.9569 -0.85752,-0.6012 -1.74654,-1.1526 -2.66391,-1.6583 -0.91736,-0.5057 -1.86335,-0.9659 -2.83395,-1.3845 -0.97057,-0.4185 -1.96609,-0.7952 -2.98328,-1.1347 -1.01719,-0.3396 -2.05579,-0.6422 -3.11298,-0.9111 -1.0572,-0.2689 -2.13299,-0.5042 -3.22358,-0.7106 -1.09059,-0.2064 -2.19612,-0.3837 -3.31348,-0.5358 -1.11736,-0.1522 -2.24624,-0.2794 -3.38379,-0.3855 -1.13752,-0.1062 -2.28383,-0.1911 -3.43492,-0.2595 -2.30219,-0.1366 -4.62489,-0.2058 -6.94169,-0.2408 -2.3168,-0.035 -4.62751,-0.035 -6.90605,-0.035 -2.27851,0 -4.52488,0 -6.71224,-0.026 -2.18739,-0.029 -4.31596,-0.09 -6.35931,-0.215 -1.02166,-0.062 -2.022,-0.1409 -2.99776,-0.2397 -0.97573,-0.099 -1.92672,-0.2179 -2.84993,-0.3613 -0.92324,-0.1433 -1.81846,-0.3112 -2.68253,-0.5074 -0.86408,-0.1962 -1.69712,-0.4208 -2.49547,-0.678 -0.79833,-0.2572 -1.56226,-0.5469 -2.28822,-0.8733 -0.72597,-0.3265 -1.41386,-0.6901 -2.06087,-1.094 -0.64699,-0.404 -1.25294,-0.8487 -1.81435,-1.3385 -0.56142,-0.4896 -1.07847,-1.0239 -1.54771,-1.6076 -0.46924,-0.5837 -0.89046,-1.2164 -1.2609,-1.9022 -0.37044,-0.6859 -0.68995,-1.4253 -0.95499,-2.2216 -0.26503,-0.7963 -0.47588,-1.6497 -0.62888,-2.5647 -0.15304,-0.915 -0.24829,-1.8913 -0.28269,-2.9331 -0.64812,-0.5536 -1.31127,-1.0645 -1.98903,-1.5348 -0.67775,-0.4703 -1.36998,-0.8998 -2.07584,-1.2914 -0.70585,-0.3917 -1.42557,-0.7454 -2.15799,-1.063 -0.73242,-0.3176 -1.47757,-0.5989 -2.23502,-0.847 -0.75745,-0.2481 -1.52691,-0.4627 -2.30788,-0.6459 -0.78094,-0.1833 -1.57366,-0.3354 -2.37659,-0.4584 -0.51856,-0.08 -1.04841,-0.1281 -1.57562,-0.184 z m -4.42143,545.9372 c 3.86498,-0.025 8.42637,0.8704 13.81623,2.8887 22.38115,-2.8914 44.38697,2.0694 45.88348,27.8598 -23.07878,16.3609 -56.69404,18.0156 -80.60645,37.5993 -1.06553,0.5419 -3.23958,-0.3335 -3.30729,-1.6521 4.22092,-21.2162 -2.84078,-66.5188 24.21403,-66.6957 z"
       id="path1355"
       inkscape:connector-curvature="0" />
    <path
       style="display:inline;fill:#ad40c0;stroke-width:0.26458332"
       d="m 183.26186,134.88634 c 0.52721,0.056 1.05706,0.1045 1.57562,0.184 0.80293,0.123 1.59565,0.2751 2.37659,0.4584 0.78097,0.1832 1.55043,0.3978 2.30788,0.6459 0.75745,0.2481 1.5026,0.5294 2.23502,0.847 0.73242,0.3176 1.45214,0.6713 2.15799,1.063 0.70586,0.3916 1.39809,0.8211 2.07584,1.2914 0.67776,0.4703 1.34091,0.9812 1.98903,1.5348 0.0344,1.0418 0.12965,2.0181 0.28269,2.9331 0.153,0.915 0.36385,1.7684 0.62888,2.5647 0.26504,0.7963 0.58455,1.5357 0.95499,2.2216 0.37044,0.6858 0.79166,1.3185 1.2609,1.9022 0.46924,0.5837 0.98629,1.118 1.54771,1.6076 0.56141,0.4898 1.16736,0.9345 1.81435,1.3385 0.64701,0.4039 1.3349,0.7675 2.06087,1.094 0.72596,0.3264 1.48989,0.6161 2.28822,0.8733 0.79835,0.2572 1.63139,0.4818 2.49547,0.678 0.86407,0.1962 1.75929,0.3641 2.68253,0.5074 0.92321,0.1434 1.8742,0.2624 2.84993,0.3613 0.97576,0.099 1.9761,0.1772 2.99776,0.2397 2.04335,0.1251 4.17192,0.1859 6.35931,0.215 2.18736,0.029 4.43373,0.027 6.71224,0.026 2.27854,0 4.58925,0 6.90605,0.035 2.3168,0.035 4.6395,0.1042 6.94169,0.2408 1.15109,0.068 2.2974,0.1533 3.43492,0.2595 1.13755,0.1061 2.26643,0.2333 3.38379,0.3855 1.11736,0.1521 2.22289,0.3294 3.31348,0.5358 1.09059,0.2064 2.16638,0.4417 3.22358,0.7106 1.05719,0.2689 2.09579,0.5715 3.11298,0.9111 1.01719,0.3395 2.01271,0.7162 2.98328,1.1347 0.9706,0.4186 1.91659,0.8788 2.83395,1.3845 0.91737,0.5057 1.80639,1.0571 2.66391,1.6583 0.85754,0.6011 1.6832,1.2522 2.47428,1.9569 0.79107,0.7049 1.54744,1.4633 2.26549,2.28 0.71805,0.8167 1.39819,1.6915 2.03658,2.6283 0.63836,0.9368 1.23484,1.9357 1.78697,3.0008 1.66917,1.5108 3.36605,3.1366 5.05343,4.7631 1.68738,1.6264 3.36553,3.2534 4.99661,4.7666 0.81552,0.7566 1.61909,1.4845 2.40657,2.1699 0.78748,0.6853 1.55879,1.3281 2.30891,1.9136 0.75012,0.5854 1.47937,1.1139 2.18281,1.5709 0.70342,0.457 1.38137,0.8426 2.0288,1.1426 0.64746,0.2999 1.26426,0.5141 1.8464,0.6284 0.29109,0.057 0.57345,0.089 0.84648,0.095 0.273,0 0.53686,-0.016 0.79063,-0.066 0.25376,-0.05 0.49736,-0.1283 0.73072,-0.2372 0.23336,-0.109 0.45638,-0.2482 0.66815,-0.4197 0.2118,-0.1714 0.41246,-0.3753 0.60153,-0.6128 0.18908,-0.2376 0.36658,-0.5093 0.53174,-0.8165 0.16518,-0.3073 0.31827,-0.65 0.45839,-1.0304 0.1401,-0.3805 0.26747,-0.7985 0.38137,-1.2558 0.22778,-0.9146 0.40187,-1.9864 0.51779,-3.2298 0.11591,-1.2433 0.17322,-2.6579 0.16796,-4.2586 -0.005,-1.6007 -0.0735,-3.3872 -0.20929,-5.3739 1.55792,-1.2788 3.14132,-2.5378 4.74543,-3.7811 1.60412,-1.2433 3.22927,-2.4708 4.87104,-3.6866 3.24061,-2.3999 6.54817,-4.7534 9.88621,-7.0931 -2.50206,0.6456 -5.00992,1.3362 -7.52616,2.1032 28.69285,-36.5743 63.5503,-93.394042 80.29898,-136.520862 15.86796,-40.94858 29.08652,-82.71378 38.41626,-126.204188 0.51691,-46.39218 10.69763,-94.11881 3.0458,-141.51071 -11.24916,-35.65321 2.2134,-97.17077 -41.7804,-108.14328 -14.59072,-12.93521 -65.57714,-20.37468 -88.05921,-23.00999 -52.20534,-2.55278 -79.61535,-8.28325 -130.18175,3.41633 -70.61271,8.24741 -136.485388,48.68767 -195.681068,86.16736 -26.28053,15.5939 4.50256,37.88727 19.2050298,50.74676 0.69175,4.83891 15.4024402,15.12237 22.1433602,19.39677 19.0333,18.91609 42.10125,38.06002 56.77534,59.08373 20.619918,23.03169 34.576028,46.03638 45.404978,73.742768 8.47254,34.29879 27.04097,67.68452 42.35193,100.13342 8.83224,35.491 28.06565,78.99489 24.04816,114.513892 -4.02455,0.3536 -7.72752,0.7575 -11.2877,1.1886 z"
       id="path1217"
       inkscape:connector-curvature="0" />
    <path
       sodipodi:nodetypes="ccccccccccccccccccccccccccccccc"
       inkscape:connector-curvature="0"
       id="path1215"
       d="m 109.57754,854.84714 c -45.437658,-7.4096 -89.277428,-21.4782 -132.596418,-36.6528 -28.89314,-3.3478 -54.02659,-22.2897 -82.335342,-30.1367 -20.28454,-8.5072 -41.03676,-18.7149 -57.19449,-33.0272 -3.94472,-18.0943 5.60821,-33.1421 17.70443,-44.9311 26.9512,-14.4506 58.505872,-18.0077 87.303532,-19.3386 22.65069,-5.2504 47.8541798,-4.2488 70.23838,1.6315 15.32026,-30.7239 -0.44153,-60.612 35.49657,-39.426 35.45624,10.7097 71.459308,21.2095 107.578748,28.172 18.43106,8.9433 -8.99332,48.9919 -0.0467,67.7054 25.55364,-15.3026 57.53703,-23.8915 82.81394,-37.2716 -4.72246,-14.8308 -12.69089,-26.1547 13.86589,-26.3443 37.30067,5.5902 114.61478,-19.1511 114.12379,-6.287 2.9279,23.126 18.38698,56.4829 19.27265,80.0629 3.71186,15.5842 9.8371,33.396 7.55075,48.5583 -27.10883,17.6046 -66.98281,11.9897 -95.30929,30.9158 -34.3622,2.0358 -69.10551,11.0686 -104.46134,8.1644 -37.45999,0.579 -58.96295,-13.117 -71.83426,11.2094 z M -84.586948,693.18334 c -0.71723,-1.229 -0.71727,1.2289 0,0 z m 507.702968,-71.7284 c -32.08968,-7.6005 -39.12505,-40.5737 -45.3852,-67.97 -9.32185,-56.7068 -34.46862,-109.2027 -40.90482,-166.6891 -13.37149,-58.2616 -25.99857,-117.1035 -35.47023,-176.2814 -4.58092,-29.5295 15.74768,-56.9615 46.08219,-55.6279 39.85858,-6.2164 119.28819,14.6061 154.69606,93.3787 1.8092,43.2943 32.5363,69.4288 49.6127,110.5461 16.6994,41.6863 35.541,84.1165 41.2302,128.8439 -13.2526,42.5455 -49.9145,78.1273 -87.539,101.0209 -35.92888,3.304 -42.09122,43.9327 -82.3219,32.7788 z"
       style="display:inline;fill:#5a4a3f;stroke-width:0.26458332" />
    <path
       style="display:inline;opacity:1;fill:#000000;stroke-width:0.35277778"
       d="m 505.99932,348.81494 c -3.8058,0.9726 -5.7513,4.9712 -9.1892,6.6823 -13.58823,10.3507 -28.28967,19.368 -44.14298,25.7472 -10.4766,3.9923 -21.75827,5.5172 -32.88273,6.5893 -3.86742,0.993 -11.66392,-3.4055 -11.36727,2.4401 -1.12273,17.9312 6.52172,34.7889 12.49587,51.2987 4.50581,12.7403 9.2741,25.4062 12.73358,38.4871 4.88606,15.5398 12.43113,30.1501 24.8884,40.8207 4.36436,6.4629 8.09138,11.6786 15.86262,15.8073 7.77502,3.2458 16.50411,4.0272 24.82581,3.2014 10.7936,-2.0749 19.9807,-8.7044 29.0081,-14.5852 11.5035,-6.7022 17.4615,-7.5354 24.4863,-14.2156 5.9309,-5.8693 8.3105,-14.3615 9.9354,-22.301 2.1329,-16.2761 -6.4913,-31.0999 -12.2107,-45.6954 -5.4361,-14.029 -10.3419,-28.3657 -17.5136,-41.6347 -2.7273,-3.7945 -5.3181,-7.621 -6.9825,-12.0411 -3.8241,-7.9488 -5.9341,-16.5485 -7.3556,-25.231 -1.2129,-3.7331 -1.4181,-5.0642 -5.7677,-10.7063 0,0 -2.8763,-4.8763 -6.8238,-4.6638 z m 1.4097,10.1404 c 0.1217,0.5567 0.2436,1.1131 0.3653,1.6697 2.2846,12.0192 3.2035,24.6222 9.0812,35.6237 4.8475,9.8276 10.9521,19.1537 14.4135,29.5398 4.96,14.5374 9.7234,29.1358 15.1619,43.5048 2.5475,7.4696 4.1857,15.63 1.2242,23.2425 -1.5104,4.1944 -2.6643,8.8787 -4.7826,12.6442 -10.4187,6.0713 -21.0265,11.8798 -31.7407,17.4393 -9.0453,4.2374 -19.7018,7.4718 -29.53053,4.3816 -6.64652,-3.2088 -10.87427,-9.6459 -16.2233,-14.5045 -10.79706,-10.7429 -18.52131,-24.2643 -22.81256,-38.8788 -2.85522,-10.3697 -6.06285,-20.6177 -9.81697,-30.7005 -5.41329,-14.8129 -6.18762,-30.9448 -12.69484,-45.454 12.9748,2.7295 26.44143,-0.7939 38.42401,-5.8436 11.83336,-6.031 23.79718,-12.015 34.82679,-19.4531 5.0853,-3.9703 9.686,-8.5201 14.1046,-13.2111 z"
       id="path1379"
       inkscape:connector-curvature="0" />
    <path
       style="display:inline;opacity:1;fill:#000000;stroke-width:0.35277778"
       d="m 144.42084,143.08794 c -8.72747,3.9298 -15.99393,10.4568 -21.50981,18.2144 -8.58485,10.2344 -17.53592,20.418 -23.423898,32.5122 -4.68026,5.9477 -11.58447,9.569 -16.68735,15.1272 -15.03305,14.3201 -27.91731,30.6889 -41.07294,46.6902 -5.36706,7.6997 -10.9587,15.2446 -16.7659,22.6017 -5.13213,8.065 -10.70884,15.7686 -16.4418902,23.3898 -4.63134,7.0109 -9.86286,13.5919 -15.67915,19.6443 -7.1748398,8.9502 -12.6846298,19.0958 -19.8282498,28.0737 -9.50598,14.4443 -19.15332,28.7929 -28.02774,43.6408 -6.79464,11.0982 -14.08639,21.9026 -21.40852,32.6388 -1.97312,5.3978 1.76135,10.7377 3.53777,15.658 1.17983,2.5114 2.51172,4.947 3.74912,7.43 -7.79773,8.069 -15.45872,16.8587 -19.49028,27.4759 -2.01882,6.7321 -4.27425,13.4057 -5.66477,20.284 -0.68002,5.4045 -0.82481,11.0004 -0.3514,16.3711 3.98897,10.1896 3.59706,22.1344 10.78384,31.0219 4.70451,6.9134 11.62239,11.7446 17.74724,17.263 5.57968,4.4152 12.85107,4.5973 19.36832,6.8094 1.74408,0.43 3.50397,0.8082 5.28289,1.0661 -5.05189,15.6017 -9.63574,31.4497 -16.57832,46.3124 -0.62465,3.2238 2.78277,5.9518 5.83427,5.0601 4.31512,0.7894 7.8231,3.8316 12.0835,4.9243 6.02283,2.045 11.77843,4.7952 17.36535,7.7437 12.8786298,4.2538 25.6331398,8.9384 38.31704,13.6286 2.47172,0.5797 4.19825,1.7632 3.12798,4.5248 -1.2709,9.9795 -3.91809,19.8214 -4.98781,29.7941 -0.0616,2.2235 -1.79094,4.7944 -4.2323002,3.0272 -24.6561098,-6.0465 -50.2953998,-3.6231 -75.3390798,-2.1012 -20.34422,1.2368 -40.383092,6.1391 -59.293542,13.6715 -11.56841,3.8182 -23.33827,9.5581 -30.1656,20.1156 -5.60058,7.4816 -9.37729,16.2686 -11.3347,25.3065 -1.71214,4.6037 -2.40105,9.7136 -0.46458,14.3691 1.07788,3.968 2.43531,8.9021 6.80992,10.3374 3.19257,1.3156 5.06298,4.4591 8.25635,5.8787 8.27988,5.218 18.02674,7.2423 26.45161,12.1672 6.84926,2.8958 13.43888,6.2865 20.17551,9.4372 6.861192,2.7687 13.629072,5.9544 20.931542,7.3499 20.22377,7.938 39.67051,18.0539 60.46815,24.6197 19.7732098,6.9324 39.89357,12.8086 59.73796,19.5171 12.00784,3.8045 24.03924,7.6728 36.36005,10.3022 10.55118,2.5799 20.86198,6.5808 31.684358,7.8037 8.40589,0.2879 17.00443,1.3935 25.3256,-0.1375 3.99301,-4.5752 4.68717,-10.1695 5.80842,-15.6156 0.17574,-2.1883 1.80663,0.5459 2.90836,0.4961 5.80911,2.038 12.10651,0.4798 18.11104,0.7509 3.72703,-0.5479 7.13344,0.9606 10.53166,2.1518 8.24566,1.7927 16.7779,-0.3986 25.03051,1.2728 8.69609,1.4096 17.52857,2.5016 26.35137,1.5358 33.90587,-1.6311 67.08277,-9.3009 100.11947,-16.5628 16.13172,-3.4183 32.41365,-6.2664 48.52881,-9.7581 9.66936,-2.8812 18.39466,-8.1476 27.64483,-12.0545 4.93422,-2.7188 10.05764,-7.2143 10.24279,-13.2597 -2.04576,-6.707 -1.91336,-13.8541 -3.57031,-20.668 -2.06124,-11.9139 -5.54321,-23.5409 -10.1844,-34.6893 -6.46004,-19.7374 -10.21873,-40.2695 -17.32867,-59.8067 -0.9452,-2.9314 -1.89923,-5.8671 -2.56675,-8.877 14.56042,-2.8814 30.01965,-2.5296 43.62678,-9.1896 4.07847,-1.5683 7.91927,-4.477 12.14035,-5.2322 2.77159,1.6337 7.11271,-1.6315 4.83796,-4.59 -6.21845,-9.7574 -13.33251,-18.9545 -18.76063,-29.2199 -3.50623,-6.6742 -8.22285,-12.6424 -11.44063,-19.4711 4.29583,3.8101 9.88261,5.9055 13.72886,10.2753 4.12739,3.8679 9.9686,5.7921 15.52723,4.6617 8.0704,-0.5266 16.35067,1.1555 24.15408,-1.6892 10.09657,-2.9829 18.40465,-9.7531 27.43914,-14.8926 6.85953,-4.8109 14.18007,-8.8553 21.13827,-13.5166 9.6247,-6.7046 18.5124,-14.3608 27.4991,-21.8741 12.3337,-8.505 22.1233,-20.0758 33.3571,-29.8798 8.944,-9.2391 17.2271,-19.1244 25.0988,-29.2809 4.5189,-6.4162 9.0724,-13.6712 9.3389,-21.7201 -3.1112,-15.8305 -3.9156,-36.2792 -10.1715,-51.5488 -4.2842,-12.6949 -8.7119,-25.3554 -12.176,-38.3046 -3.4747,-9.1478 -7.5568,-18.0431 -11.2804,-27.064 -8.6399,-19.0757 -17.6028,-38.1111 -28.7011,-55.9 -6.3881,-9.5075 -14.1516,-18.1378 -20.376,-27.6923 0.9484,-4.6148 1.5512,-9.5371 1.1358,-14.3459 -0.2205,-6.2662 -3.0733,-12.0543 -2.6768,-18.3612 -0.1122,-6.5163 -1.7505,-13.0738 -5.5676,-18.3963 -5.2119,-9.6552 -9.4179,-20.0963 -17.09,-28.1642 -8.77326,-11.7545 -19.86219,-21.4537 -30.90296,-31.0001 -14.45506,-11.8969 -29.96496,-23.0283 -47.7511,-29.344 -9.40872,-3.3783 -18.77325,-7.7461 -28.96413,-7.814 -7.78705,-0.3134 -15.62221,0.018 -23.38564,0.184 -12.13461,2.5887 -24.32741,6.6956 -35.57792,11.9282 -2.99135,3.1206 -6.6735,5.305 -8.88986,7.7523 -1.10818,1.2237 -0.91358,2.6958 -1.82756,3.7623 -0.91398,1.0665 -1.73101,2.0932 -2.45049,3.01 -0.71951,0.9167 -1.19518,1.7238 -1.7199,2.4982 -0.52469,0.7744 -1.00676,1.5345 -1.33638,2.174 -0.32962,0.6396 -0.56184,1.1952 -0.69609,1.7073 -0.0671,0.256 -0.10994,0.4963 -0.12817,0.7219 -0.0183,0.2255 -0.0482,0.4908 -0.0175,0.6868 0.14129,0.9015 0.25334,1.8091 0.30922,2.8347 0.0559,1.0257 0.0555,2.1696 0.0453,3.2518 0.16563,2.19 -0.25826,4.3028 -0.43156,6.3577 -0.16838,1.9842 -0.38999,3.5604 -0.5516,4.8232 -0.16161,1.2627 0.0479,2.1933 0.0479,2.1933 -1.93037,0.1531 -3.63709,0.9282 -5.14794,1.2252 -0.75544,0.1484 -1.37076,0.1962 -2.03888,0.2376 -0.66813,0.041 -1.23738,0.031 -1.83907,-0.063 -0.60166,-0.094 -1.12342,-0.3147 -1.67949,-0.5726 -0.27803,-0.129 -0.81,-0.073 -1.08056,-0.2486 -0.27054,-0.1752 0.26567,0.2251 0,0 -0.53134,-0.4502 -1.54893,-1.7585 -2.07635,-2.4293 -0.29207,-0.3714 -0.90151,-0.7163 -1.19734,-1.1622 1.40314,2.693 2.37818,5.5709 2.52955,8.6915 1.7432,8.1549 4.5907,16.1662 4.69482,24.554 1.98874,18.525 7.57311,36.442 9.27798,55.0008 1.20166,10.8785 5.45904,21.0323 6.47039,31.9314 0.99875,9.4976 5.19557,18.2509 6.61149,27.6536 1.82684,10.2982 4.23343,20.4702 7.35356,30.4483 6.04398,23.3906 9.26822,47.4819 16.86719,70.4706 3.0177,11.9976 5.00925,24.2848 9.41287,35.8945 3.5928,12.3335 7.52509,24.5566 11.42306,36.791 2.36173,8.8402 4.84429,18.1605 8.31628,26.3829 -8.43272,2.2878 -17.56995,2.1675 -25.72297,5.7846 -17.58707,6.336 -35.12905,13.7785 -53.99101,15.0854 -9.74627,0.8896 -19.58832,1.4506 -29.34655,2.343 -10.00472,-0.1114 -19.88894,-1.6453 -29.75012,-3.375 -11.52605,-1.0965 -21.66493,-7.3371 -32.94425,-9.7198 -4.18878,-1.223 -9.43153,-2.4481 -11.66699,-6.5655 0.20153,-9.5904 -2.01292,-19.1163 -2.70423,-28.669 -1.2795,-20.0193 -2.99717,-40.0806 -4.56612,-60.1002 0.80806,-14.4073 2.26681,-28.8259 2.19109,-43.293 0.0767,-20.5727 -2.10674,-41.0647 -3.85715,-61.5389 -1.45484,-17.0367 -5.66518,-33.6513 -8.20362,-50.5101 -1.09521,-14.142 -5.60197,-27.7995 -6.69933,-41.9132 -1.81686,-8.9376 -1.63279,-18.0587 -0.23307,-27.0304 1.81489,-11.364 5.22478,-22.4124 7.90856,-33.5721 4.92014,-12.1282 15.61764,-20.3794 23.7381,-30.3227 1.08204,-1.4433 2.39519,-2.7202 3.80029,-3.9077 -0.13529,0.057 -0.32695,0.1592 -0.40154,0.1581 -2.97225,-0.569 -4.8337,-5.2042 -6.61355,-7.1257 v 0 c -6.30499,6.048 -11.61685,13.3209 -17.72192,19.466 -6.23824,6.9196 -12.14234,14.7216 -13.75624,24.136 -2.10267,10.1794 -6.35577,19.7986 -7.62797,30.1625 -1.289,7.5848 -2.94254,15.2646 -1.61025,22.9862 1.1313,9.9772 1.4941,20.0352 3.32745,29.9496 2.49187,17.5178 4.29887,35.1388 7.57526,52.5353 1.92767,12.1649 2.14365,24.509 2.50579,36.8159 3.23077,26.7929 3.32616,53.9309 0.40822,80.7563 0.0669,7.7456 2.09603,15.3492 2.28463,23.0725 1.4796,14.4012 1.7471,28.8923 3.05924,43.2986 1.17422,7.5383 2.17525,15.1457 2.98019,22.6524 2.93735,11.101 12.81046,19.699 24.06261,21.5558 11.60603,2.9529 22.6405,8.4725 34.75551,9.3539 3.22098,0.4434 6.44715,0.9484 9.57461,1.8578 -0.0447,7.5028 0.56343,15.1593 3.60907,22.0994 2.89312,8.764 6.80281,17.1754 9.19271,26.0981 6.34421,15.3218 20.82795,26.2901 36.45983,30.9449 8.98189,2.4255 18.43928,3.4877 27.64067,1.65 10.28039,-0.8952 20.59078,-3.4606 29.20701,-9.357 8.02183,-5.1016 15.85563,-10.8821 21.27002,-18.8304 6.72827,-8.5848 12.5854,-18.557 13.3351,-29.6751 4.67604,8.651 7.08366,18.6276 13.37696,26.4624 6.3949,10.1436 11.22731,21.5899 19.40452,30.4105 -5.66026,1.4244 -10.85712,4.4513 -16.5685,5.81 -13.26033,3.988 -27.40335,3.3979 -40.6735,7.4223 -11.28519,3.3598 -23.28285,3.2101 -34.75447,5.6487 -8.06757,2.4956 -16.43605,3.9384 -24.90285,4.0034 -15.9735,0.8615 -31.92669,2.1289 -47.83122,3.7719 -5.24335,0.3785 -9.77865,-3.1279 -15.06214,-2.6505 -15.35404,0.1962 -30.75263,-0.01 -45.9481,-2.2071 -9.67015,-0.7118 -19.19277,-2.4776 -28.80236,-3.4995 -6.41286,-1.1809 -12.50955,-3.7564 -19.07275,-4.4494 -11.00357,-1.6782 -21.7419,-4.6821 -32.74528,-6.3443 -13.364448,-2.4516 -26.041638,-7.8003 -39.274098,-11.0128 -18.61118,-4.6609 -36.55424,-11.4712 -54.9739,-16.7602 -13.0236102,-3.5528 -25.3216502,-9.6321 -38.35373,-13.2731 -8.80084,-4.376 -18.18572,-7.4578 -26.9198,-11.979 8.96972,-14.5873 15.13439,-44.7344 18.44538,-52.5844 7.49955,-21.2785 15.30007,-42.469 21.2085198,-64.2643 7.30126998,-24.463 13.7504,-49.177 18.9673202,-74.1691 3.57917,-14.857 9.64061,-28.8679 14.98152,-43.1261 1.97803,-7.9212 4.71266,-15.5359 7.45226,-23.2074 3.62312,-11.8732 7.78878,-23.5704 12.65193,-34.9864 3.16286,-9.3663 6.43383,-18.7465 11.34247,-27.3767 5.70488,-12.138 11.92715,-24.0649 19.67993,-35.035 11.70011,-19.3095 19.74262,-40.8085 34.532268,-58.0952 1.85602,-3.0399 5.63007,-5.0402 6.48435,-8.6005 -0.31951,-2.4311 1.14824,-4.1498 2.75747,-5.734 9.83469,-12.347 19.72119,-24.7603 28.28766,-38.0101 0.33263,-1.0549 -0.0658,-2.2403 -0.8635,-2.9786 z m 220.69144,12.9377 c 12.37787,1.0566 25.32084,0.2292 36.80188,5.7924 15.36126,5.1712 30.00835,12.6321 42.51317,22.9878 13.27235,9.8402 24.84564,21.9015 34.51624,35.3048 4.19278,4.8179 8.11687,10.1517 9.35602,16.5478 3.53793,9.7906 9.47053,18.5392 12.60543,28.4629 1.8385,3.4771 3.0074,7.2183 4.1331,10.9626 0.5699,0.8521 2.9997,0.7514 1.1384,1.7384 -5.1473,3.4354 -11.744,3.6171 -17.72551,3.8184 -7.89678,-0.5579 -15.83881,-1.755 -23.78615,-2.1348 -8.64394,-1.3908 -17.18098,-3.6515 -25.96483,-4.1563 -18.9148,-2.7299 -38.33038,-0.9777 -57.05645,-4.8519 -6.71248,-2.1088 -13.65911,-3.5943 -20.34553,-5.6477 -7.56251,-4.8917 -11.95607,-13.1164 -18.29295,-19.3244 -7.7674,-9.4641 -12.19877,-21.0375 -19.31096,-30.9527 -6.23985,-10.5722 -12.43496,-21.5198 -14.72416,-33.7199 -0.82799,-2.1364 -1.34067,-4.0901 1.29553,-4.9625 9.00136,-6.4558 19.19047,-11.1632 29.83124,-14.1743 8.10088,-2.901 16.5436,-4.5347 25.01553,-5.6906 z m -60.03096,47.6622 c 0.74154,1.4779 1.48261,2.9555 2.22416,4.4333 4.33851,9.2575 9.82128,17.8945 14.74587,26.8211 3.31493,6.9477 7.62772,13.3731 12.91341,18.9627 7.53586,9.3296 14.71636,20.5136 26.76581,24.3334 9.80223,4.1616 20.16376,7.0328 30.794,7.8967 18.99902,2.7845 38.22515,3.9865 57.22647,6.4218 16.27981,3.7125 33.3293,9.365 50.06828,4.8674 2.4136,-0.3897 5.3255,-3.1852 7.0647,-0.2051 6.566,6.9333 10.513,15.809 16.199,23.4156 12.3106,18.8392 21.5747,39.4249 30.1738,60.1545 8.6562,18.8956 14.3433,38.883 20.0686,58.8088 3.2659,9.4225 6.6095,18.9739 7.1691,28.9832 1.2331,8.954 2.1386,18.0281 4.4891,26.7942 -5.311,8.6985 -9.791,18.0454 -17.107,25.3163 -6.7665,8.4416 -14.3726,16.113 -22.3717,23.3753 -10.4947,10.4215 -21.2873,20.5779 -33.1097,29.4623 -8.1643,6.0588 -15.6495,13.0452 -24.65219,17.9157 -12.03671,7.1792 -23.76257,15.5082 -37.40546,19.357 -8.00397,1.5032 -16.20573,1.0461 -24.26415,2.1477 -5.04618,-0.872 -8.11847,-5.6896 -12.89844,-7.3169 -7.80015,-4.5463 -12.72653,-8.5913 -18.22989,-15.4792 -1.09882,-1.4222 -3.34227,-4.321 -4.62402,-4.8467 -2.99434,-5.1458 -2.73447,-11.4901 -4.6736,-17.0682 -1.5407,-6.0355 -3.60434,-12.2518 -4.3026,-18.295 3.22056,-0.8709 5.64793,-4.2072 6.10145,-7.3732 -1.52778,-4.2434 -1.49376,-8.8151 -2.57606,-13.2245 -2.41044,-13.374 -6.68221,-26.2945 -10.86136,-39.1801 -1.98477,-8.2453 -4.46209,-16.4018 -8.32612,-23.9722 -4.06207,-10.9236 -4.84722,-22.8446 -9.42578,-33.6408 -5.0206,-15.9054 -8.54456,-32.2268 -12.8297,-48.3392 -3.45393,-14.3126 -8.32562,-28.2748 -10.604,-42.8568 -1.30058,-7.5971 -3.73565,-14.9267 -6.03065,-22.2415 -1.70254,-8.969 -2.50116,-18.1485 -5.59654,-26.801 -2.92367,-12.0263 -2.57043,-24.6729 -6.40943,-36.5342 -3.13071,-12.8619 -4.92466,-26.0273 -6.34743,-39.1459 -1.04357,-4.3345 -2.42271,-8.5844 -3.35793,-12.9465 z m -229.537428,30.9645 -0.12092,0.2445 c -7.33229,14.08 -17.76947,26.4349 -23.54481,41.3478 -4.55925,10.3258 -10.85335,19.8285 -14.31541,30.6271 -8.6336,22.4399 -15.86577,45.4156 -21.94801,68.6614 -4.36952,11.0387 -9.3768102,21.9136 -11.6137602,33.6527 -4.14473002,17.5783 -6.85899,35.4934 -10.9244,53.0568 -2.75255,10.9676 -6.3016698,21.7101 -9.5658298,32.5308 -15.82083,-10.3959 -27.57128,-25.7462 -38.6457,-40.9282 -5.12772,-7.4936 -10.15509,-15.3453 -12.81524,-24.0518 17.0269,-24.864 32.56731,-50.7119 49.17788,-75.8414 9.1465598,-12.4433 17.1996998,-25.6961 27.7197498,-37.0618 7.6582402,-9.7749 15.0494302,-19.7885 22.0668802,-29.9987 10.55233,-13.412 21.16289,-26.8053 32.81608,-39.2875 3.90328,-4.3209 7.65692,-8.7699 11.71349,-12.9517 z m -140.19506,221.5219 c 0.60873,0.8971 1.21701,1.7942 1.82573,2.6913 10.22518,13.7304 19.53716,28.835 33.69355,38.9372 3.28468,2.2866 6.83095,4.2365 10.62313,5.5371 -6.86137,17.6284 -12.05797,35.9028 -18.8712,53.5099 -9.16125,-4.7876 -20.479,-4.6008 -28.36726,-11.9119 -6.74198,-4.6856 -12.9019,-11.0576 -14.47251,-19.418 -1.30137,-6.226 -4.00288,-12.0911 -4.98057,-18.3694 -1.18528,-10.1135 2.68055,-19.9162 5.88233,-29.393 3.44213,-8.0883 9.65176,-14.4741 14.6668,-21.5832 z m 437.546438,98.7614 0.1261,0.5142 0.12401,0.5075 c 2.85274,13.2639 5.69587,26.8913 3.61942,40.4512 -0.85233,8.0452 -3.97256,15.5922 -8.85063,21.9914 -4.94573,8.109 -11.61865,15.1881 -20.1259,19.5337 -6.12185,4.0853 -13.04306,6.8355 -20.41994,7.3427 -8.13824,0.8254 -16.4556,0.7615 -24.49824,-1.0438 -9.29037,-2.0329 -17.80548,-6.6257 -24.54942,-13.361 -4.02939,-3.9843 -8.76652,-7.9776 -9.57667,-13.9666 -3.66115,-13.0644 -8.11943,-25.8889 -12.52998,-38.7175 13.22398,1.1987 26.43388,-0.6498 39.64048,-1.2004 14.04821,-1.1239 28.14664,-2.8402 41.76334,-6.5577 9.57707,-2.9818 19.16684,-6.2126 28.1957,-10.5989 2.49253,-1.4302 4.81941,-3.1282 7.08173,-4.8948 z m -341.380728,96.9589 c 0.38802,0.092 0.77625,0.1851 1.16427,0.2775 10.10527,1.7286 19.5981,5.8264 29.54445,8.2383 13.70463,3.555 27.13417,8.03 40.753588,11.8685 12.19602,2.9329 24.55251,5.115 36.70009,8.1938 6.05044,1.1331 12.12916,1.977 17.96841,3.9238 -4.78094,13.8511 -4.28088,28.7543 -8.00105,42.8455 -2.77265,11.7563 -3.43805,23.8636 -6.39083,35.5787 -4.08816,18.5114 -7.64392,37.1377 -11.28305,55.7309 -2.7945,10.5487 -5.87552,21.0572 -8.04757,31.7397 -1.24991,2.0421 -3.91771,-0.2407 -5.8203,0.043 -10.77542,-1.3623 -21.724508,-1.7275 -32.076088,-5.1811 -9.09343,-2.5965 -18.43745,-4.2245 -27.57403,-6.5629 -10.79992,-2.9227 -21.80228,-5.1124 -32.27038,-9.1705 -13.44346,-4.7871 -27.3830202,-8.0441 -40.57892,-13.5485 -16.72532,-5.8582 -33.35163,-12.072 -49.73495,-18.8226 -8.68056,-3.9777 -17.75507,-7.1469 -27.05313,-9.2 -7.36701,-2.9352 -14.878182,-5.6385 -21.635372,-9.8438 -6.01661,-2.5502 -11.95957,-5.2949 -17.70331,-8.3788 -6.46587,-2.322 -13.10196,-4.338 -18.91461,-8.1086 -2.77233,-1.6847 -6.72894,-2.758 -8.2982,-5.6529 -0.43577,-3.8402 -1.90225,-7.7394 0.17983,-11.3559 3.80288,-10.7935 8.81637,-21.8927 17.63613,-29.5785 9.33763,-7.129 21.02355,-9.9879 31.79858,-14.1671 15.661902,-5.3562 32.110312,-8.0512 48.607372,-8.8 20.66663,-2.1713 41.46546,-0.765 61.9460898,2.404 3.00257,0.848 7.7579202,-0.5134 8.8780102,3.4396 2.0069,4.3307 4.12762,8.6454 6.5965,12.7361 1.76388,3.2 6.41074,3.4765 9.44077,2.0252 3.2454,-1.9693 0.82455,-6.1965 -0.84388,-8.4217 -1.73487,-2.6112 -5.32637,-4.845 -4.00802,-8.4103 -1.01222,-7.5729 3.82588,-14.2125 5.17694,-21.4824 2.06552,-7.2853 3.54783,-14.7774 3.84266,-22.3594 z m 329.250188,28.3285 c 0.0944,0.7507 0.18881,1.5009 0.28321,2.2516 2.74251,14.9624 8.66669,29.1495 11.3316,44.0846 3.228,13.3221 7.09478,26.5024 12.23129,39.2198 3.64776,11.4591 6.06346,23.3095 7.9742,35.1586 -0.45868,2.884 -1.65322,6.2823 -5.08085,6.4089 -11.93183,4.1358 -24.29086,6.9372 -36.29027,10.8821 -8.98695,2.5537 -18.37346,2.9267 -27.33427,5.673 -18.56306,4.5706 -37.38335,8.0547 -56.01726,12.3677 -19.20981,3.1589 -38.63422,5.7169 -58.11271,5.6204 -12.14949,-0.4119 -24.38207,-2.4473 -36.52232,-1.0418 -5.32699,0.9052 -9.7328,-3.4601 -15.07972,-2.635 -6.28607,-0.1727 -12.83395,0.8494 -18.93578,-0.6444 -2.75246,-1.9928 0.42953,-5.364 0.50848,-7.9747 4.20526,-15.0627 5.40909,-30.7239 9.2129,-45.8737 2.02962,-9.1058 4.19677,-18.1934 6.77476,-27.1751 11.21868,-7.9291 23.41414,-14.3668 35.75804,-20.3435 9.63729,-4.6329 19.67788,-8.4245 30.06275,-10.8396 4.19958,-1.2017 8.50929,-3.0127 12.83539,-2.7368 3.06999,3.7256 9.1477,1.0793 10.29137,-3.0918 2.81328,-8.7378 -2.75032,-17.0825 -5.47513,-25.0626 -1.26736,-2.4273 3.01776,-0.5964 4.4297,-1.0392 19.60272,0.4537 39.05404,-2.6114 58.58508,-3.7377 12.81716,-1.1157 25.18828,-4.9264 37.99149,-6.0735 6.88795,-0.9527 13.73812,-2.1489 20.57805,-3.3973 z m -192.74224,7.1815 c 20.13458,3.2172 40.55772,4.9997 60.88465,5.5723 1.28378,-0.094 -0.15293,1.9621 0.16796,2.6737 -0.59984,6.405 3.58134,11.9371 4.32636,18.0744 -5.50662,-0.091 -11.67474,0.6702 -17.17882,2.4029 -13.61265,3.6892 -26.57578,9.3836 -39.13301,15.7422 -6.84638,3.7842 -13.21919,8.3374 -19.65719,12.7631 1.2673,-8.9065 2.57532,-17.8528 5.31389,-26.4325 0.86961,-7.8553 1.4882,-15.7697 3.75068,-23.3841 0.49562,-2.4589 0.7103,-5.0758 1.52548,-7.412 z"
       id="path1377"
       inkscape:connector-curvature="0"
       sodipodi:nodetypes="cccccccccccccccccccccccccccccccccccccccccccccccccccccccccccccccccccccccccccccccccccccscccscccsccsccccccccccccccccccccccccccccccccccccccccccccccccccccccccccccccccccccccccccccccccccccccccccccccccccccccccccccccccccccccccccccccccccccccccccccccccccccccccccccccccccccccccccccccccccccccccccccccccccccccccccccccccccccccccccccccccccccccccccccccccccccccccccccc" />
    <path
       style="display:inline;opacity:1;fill:none;fill-rule:evenodd;stroke:#000000;stroke-width:0.26458332px;stroke-linecap:butt;stroke-linejoin:miter;stroke-opacity:1"
       d="m 144.42089,143.08814 5.02346,0.059"
       id="path1365"
       inkscape:connector-curvature="0" />
    <path
       style="display:inline;opacity:1;fill:#000000;stroke-width:0.35277778"
       d="m 144.42084,143.08794 5.02346,0.059 c 12.72921,-0.2013 26.26339,-0.3025 38.39353,-4.4426 1.31214,-0.2828 2.26554,-0.6747 3.03752,-1.11 -0.23696,-2.3635 -0.40032,-4.5709 -0.40463,-6.41 -2.77302,-0.9374 -7.52226,0.9919 -9.96786,0.5902 -15.02285,1.4052 -30.05738,2.3812 -45.15022,2.0329 -5.85248,0.4694 -11.58023,-0.6906 -17.22014,-2.0562 -15.0169,-2.6055 -30.274288,-4.1531 -44.684078,-9.2181 -10.97038,-2.9301 -21.51181,-7.2558 -32.50241,-10.126 -7.03061,-2.1878 -14.29828,-3.9064 -20.40599,-8.11 -4.65013,-1.9558 -8.98167,-4.577602 -13.1681902,-7.365502 7.5052602,-9.85407 13.4708902,-20.86566 18.3849202,-32.19284 2.20366,-7.07372 4.67201,-14.35114 4.62298,-21.82244 -0.31299,-2.9006 -4.29641,-5.71442 -6.5164,-2.87631 -10.11416,10.658 -22.6168302,18.91435 -34.24701,27.82154 -4.60976,3.39371 -9.95447,5.89098 -15.5391,6.8611 -2.31826,2.07269 -4.34516,-1.04627 -6.37687,-2.04277 -23.18984,-16.1663 -41.11438,-38.50164 -57.96391,-60.86813 -10.775672,-14.6976103 -18.784012,-31.1304 -27.818462,-46.8974 -3.29923,-6.3523 -6.98278,-13.01578 -8.63771,-19.82618 2.20962,-0.41619 2.21851,-3.22731 2.47478,-4.60539 8.48445,-3.59392 14.69879,-10.86065 19.15439,-18.71515 4.28161,-5.83678 7.966032,-12.237 9.329662,-19.41999 1.61957,-7.043708 -0.94238,-14.174128 -3.74602,-20.505738 1.46368,-2.51059 4.57966,-3.70362 6.37894,-6.03992 18.82436,-17.12121 39.2222,-32.35256 60.46659,-46.28864 15.52801,-10.83001 32.74970978,-19.13327 47.34388,-31.30198 3.41647,-2.5585 7.01107,-5.12839 10.4805,-7.4631 8.18353,7.1243 13.3894,17.36076 22.70249,23.33707 11.16282,8.46021 21.29814,18.49887 29.59096,29.87156 10.54786,11.4318 21.88567,22.27485 29.999728,35.66655 7.49728,11.06629 13.0739,23.285488 16.85115,36.077378 8.84843,23.84181 19.5435,47.01296 27.06089,71.31296 3.39016,10.4242897 5.49127,21.2307697 9.5803,31.43168 3.73894,10.51269 7.42884,21.06046 12.54549,30.99967 2.93933,7.08218 4.98813,14.51961 7.48945,21.73872 2.04049,9.28327 4.97446,18.41155 7.33856,27.59625 2.40597,10.245302 2.84517,20.702402 2.14199,31.198602 -0.0109,0.3625 0.006,0.807 0.007,1.2056 -0.0989,3.286 -0.19222,2.4388 0.40462,6.41 0.63474,6.3307 1.98914,13.7556 3.86231,18.5668 0.1651,0.9744 0.67506,1.7124 1.36271,2.2593 2.25602,-2.163 4.64534,-4.161 7.23934,-5.9004 -0.79509,-17.505 1.60584,-34.6802 -0.46974,-47.0225 -2.41432,-14.178202 -5.79985,-25.372032 -10.126,-39.019322 -3.967,-11.59859 -8.32519,-23.06 -13.43586,-34.20049 -9.11275,-23.0824103 -15.80687,-46.98455 -23.6833,-70.49236 -6.22144,-17.17939 -13.38927,-34.00406 -19.4102,-51.26196 -3.54963,-8.48352 -5.59909,-17.710678 -11.03911,-25.269798 -10.48896,-16.62587 -23.5798,-31.36875 -35.672238,-46.81314 -8.53225,-10.52279 -17.44808,-20.87724 -28.36933,-29.01992 -7.04294,-5.48341 -13.88746,-11.24828 -19.55488,-18.17719 -5.45559,-6.28391 -12.2696,-11.08308 -18.67328,-16.28738 -7.23428,-6.7795 -14.9836502,-12.97221 -23.21305022,-18.50171 -7.73239998,-5.46912 -14.91869978,-11.86494 -20.13106978,-19.82774 -1.69592,-2.08899 -3.35188,-3.15283 -4.14187,-6.41874 2.70682,-5.14628 7.22412,-8.34929 12.17755,-11.72951 9.6257098,-6.84889 19.6363098,-13.23305 29.33465,-20.00705 15.02204,-9.2779 30.89811,-17.13817 46.55219,-25.23307 23.7607,-11.29109 48.368868,-20.75249 73.052378,-29.7982 16.47907,-5.26679 33.62793,-8.55167 50.79847,-10.64069 6.94483,-0.41688 14.00773,0.15248 20.83956,-1.62521 12.1141,-2.03411 24.3092,-3.43098 36.61378,-3.30057 16.10725,0.28898 32.18532,1.49598 48.29834,1.572 22.72771,1.1026 44.77956,7.15028 67.10444,11.23238 12.67045,2.7364 24.8443,7.54264 37.38478,10.75592 6.09299,1.96361 12.50408,3.6231 18.03249,6.70709 1.91942,3.61039 1.25384,8.00954 2.70217,11.82253 4.44039,19.89622 9.84361,39.62808 11.96983,59.93538 3.19249,21.77449 6.51108,43.5642 6.42596,65.62132 -0.33324,18.9919 -1.4728,38.02515 -1.68156,56.98567 -3.05028,30.28276 -8.16539,60.294368 -14.62908,90.021868 -5.95794,15.43209 -9.80286,31.58154 -15.82023,46.97905 -4.45939,12.7072997 -10.55108,24.69258 -15.30707,37.28868 -3.69573,7.9589 -7.77161,15.79777 -11.06805,23.97217 -3.79309,8.17941 -8.44106,15.91432 -12.82454,23.78562 -7.13976,11.1714 -13.78654,22.64817 -21.13103,33.684772 -14.30245,20.8553 -29.56467,41.0602 -45.44475,60.7255 -3.97031,11.5359 -1.82213,10.1707 0.18912,17.617 -3.11922,-4.3181 -7.44508,-7.9131 -9.13844,-13.116 -7.02723,-12.2912 -26.56245,-20.7503 -40.06011,-23.5872 -12.22754,-1.6732 -17.54053,-4.2778 -26.6821,-4.6467 -4.80213,1.5037 -9.82895,2.3224 -14.48437,4.2757 -1.86669,0.8707 -3.61397,1.8936 -5.28445,3.0138 -4.10897,1.3368 -3.98134,2.5634 -7.23934,5.9004 -0.005,0 -0.01,0.01 -0.014,0.012 1.3e-4,10e-5 0,0 0,0 1.62761,3.3278 3.1006,5.4508 5.72936,6.8693 0.30065,0.1598 0.59643,0.2518 0.88419,0.2563 0.0746,0 0.26625,-0.1011 0.40153,-0.1581 5.87738,-4.9673 14.06398,-7.696 20.67264,-7.7618 14.62751,0.6434 29.57872,2.9446 42.74777,9.6248 4.53136,2.7008 9.27619,5.6238 12.59563,9.7032 -0.30115,4.0332 4.51284,5.3268 6.16137,8.4362 2.58583,2.8807 5.11115,6.026 6.91277,9.4837 0.29583,0.4458 0.59521,0.9458 0.88728,1.3172 0.52742,0.6708 1.05151,1.2241 1.58285,1.6743 0.26567,0.2251 0.53303,0.4247 0.80356,0.6 0.27057,0.1752 0.54415,0.3263 0.82217,0.4552 0.55607,0.258 1.12951,0.4268 1.73117,0.521 0.60169,0.094 1.2315,0.1137 1.89963,0.072 0.66812,-0.041 1.37467,-0.1435 2.1301,-0.292 1.51085,-0.297 3.21758,-0.7797 5.20277,-1.3348 0,0 0.11951,-0.7666 0.28112,-2.0293 0.16161,-1.2628 0.36494,-3.0218 0.53332,-5.0059 0.0842,-0.9921 0.15965,-2.0405 0.21651,-3.1115 0.0569,-1.0709 0.0953,-2.1642 0.10544,-3.2463 0.01,-1.0821 -0.008,-2.153 -0.0636,-3.1786 -0.0559,-1.0256 -0.14965,-2.0063 -0.29094,-2.9079 -0.0307,-0.1959 -0.0373,-0.4064 -0.019,-0.6319 0.0183,-0.2256 0.061,-0.4659 0.12817,-0.722 0.13425,-0.512 0.36647,-1.0859 0.69609,-1.7254 0.32962,-0.6396 0.75686,-1.3449 1.28156,-2.1193 0.52472,-0.7744 1.14655,-1.618 1.86605,-2.5347 0.71948,-0.9168 1.53652,-1.907 2.45049,-2.9735 3.52542,-4.0825 7.55378,-8.3344 10.84533,-11.7703 8.09188,-10.983 16.64351,-21.6493 24.03472,-33.1437 6.34148,-8.4655 11.53102,-17.671 16.84806,-26.780802 6.04848,-9.35902 11.60148,-19.02033 16.83255,-28.84373 6.76799,-11.07202 10.22078,-23.69 15.81404,-35.3255 4.381,-10.99201 8.94811,-21.9044303 13.4891,-32.83003028 4.77589,-13.37359972 8.76128,-27.02019972 12.77233,-40.63679972 3.16754,-7.84601 6.28224,-15.80348 7.2621,-24.26467 2.25208,-9.5485 3.54071,-19.26849 5.00436,-28.94499 2.89068,-16.866108 5.27074,-33.850998 6.90602,-50.877008 0.49496,-19.2599 1.52183,-38.50746 1.76011,-57.77167 0.13134,-16.03068 -1.42454,-32.02273 -3.92845,-47.83272 -2.2633,-22.30911 -5.8578,-44.5066 -11.72485,-66.16909 -1.96715,-8.6459 -4.50858,-17.27949 -5.01158,-26.1669 -1.01963,-3.63159 -5.81065,-3.59285 -8.48011,-5.44565 -16.09688,-6.97331 -32.28613,-13.91018 -49.07651,-19.03907 -12.88867,-3.24131 -26.11387,-4.77243 -39.0281,-7.89512 -14.35778,-2.9601 -28.98667,-4.42552 -43.648,-4.22971 -6.9098,-0.2486 -11.49043,-0.47812 -20.7636,-1.00562 -8.57922,-3.18932 -26.04214,-1.79785 -35.1591,-1.29244 -16.20634,0.5202 -23.48357,3.8113 -39.74899,3.6308 -13.89917,0.79639 -27.37737,4.6514 -40.859,7.85169 -16.22168,4.01402 -31.40437,11.09941 -46.96044,17.03671 -14.696158,6.25369 -29.550898,12.18663 -43.783888,19.48564 -14.15809,6.81249 -27.40092,15.30159 -41.16028,22.81099 -10.0917702,6.40289 -19.5076102,13.81792 -29.5429,20.30212 -6.4461,4.8133 -13.5451,9.31923 -18.14308,16.07293 -2.44904,4.567 -1.95416,11.13888 1.33635,14.68488 4.18822,7.25951 8.85936,14.5423 15.8409,19.41949 10.1870498,8.83219 21.2813598,16.66039 30.8591,26.15758 2.49513,1.22 -2.18851,1.78896 -2.9559,2.85306 -23.0855902,12.68568 -44.05701,28.68721 -66.0926,43.0294 -14.3318,9.51291 -27.08977,21.1506 -40.15363,32.28901 -4.60652,3.74748 -8.931602,8.6315 -13.216762,12.18528 -6.61754,-7.4585 -19.54635,-9.12067 -26.98234,-1.99986 -6.39025,0.718 -11.34313,5.69445 -15.45642,10.20452 -4.98062,6.56799 -8.86299,14.00516 -10.44794,22.143348 -2.31007,8.16811 -0.81167,17.08036 3.09542,24.51738 3.57225,6.3138 10.06467,10.56121 17.17001,11.80393 1.24855,3.57079 1.77649,8.17647 3.40651,11.95999 5.49973,14.36251 14.37796,27.08005 21.54907,40.6078497 7.24027,13.25221 15.362362,26.0534203 25.184512,37.5610203 9.67572,11.76279 18.86353,24.07594 30.01058,34.51056 8.97557,7.95408 19.58808,14.18706 31.06064,17.71104 8.02328,-0.20777 16.05539,-2.54986 22.3748598,-7.61968 7.07083,-4.78239 13.6527,-10.25371 19.9295302,-16.02692 -4.14988,10.49999 -9.1556302,20.79852 -15.88482022,29.88856 -2.76729998,2.3792 -7.11967998,6.0011 -4.94904998,10.123502 1.30405,2.5873 4.48510998,1.9706 6.64197,2.6293 9.6525502,5.2079 18.4254702,12.247 29.0778102,15.4512 10.27721,3.1379 21.26314,3.6493 31.16296,7.9876 12.30888,4.5895 24.77952,9.1186 37.92377,10.572 10.155218,1.0607 20.034678,3.793 30.138218,5.0927 4.94178,0.1129 9.86406,0.6181 14.811,0.7121 z m -272.80248,-262.28683 c 0.45962,0.2929 0.91909,0.58601 1.37872,0.87901 4.26038,2.6516 10.28691,3.12508 12.73462,8.09718 1.86699,2.08399 3.30259,5.79038 0.47284,7.74578 -2.53767,3.039298 -4.44855,6.526108 -6.89518,9.611808 1.3389,-2.06179 -0.25705,-4.08998 -0.99581,-5.9862 -0.66503,-4.160778 -6.4887,-4.147918 -8.9979,-1.625228 -0.91595,0.44353 -1.70244,3.178738 -1.95337,1.141018 -0.74105,-1.944688 -3.06443,-2.973808 -5.0369,-2.457208 1.26569,-2.61041 2.34843,-7.36 -1.15238,-8.68939 -1.13296,-0.70491 2.70155,-2.82454 3.5388,-3.97444 2.13558,-1.80488 4.41221,-3.46663 6.90656,-4.74233 z"
       id="path1040-3"
       inkscape:connector-curvature="0"
       sodipodi:nodetypes="ccccccccccccccccccccccccccccccccccccccccccccccccccccccccccccccccccccccccccccccccccccccccccccccccccccccccscssscccscccccccccccccccccccccccccccccccccccccccccccccccccccccccccccccccccccccc" />
    <path
       style="display:inline;opacity:1;fill:#000000;stroke-width:2.26635003"
       d="m 38.349922,-147.79127 c -15.15694,0.1262 -29.5327102,12.3929 -30.9952102,27.6098 2.7418902,0.9765 -1.02881,-7.2593 0,0 -0.67145,6.65568 4.5513602,8.40289 5.2298402,15.22771 2.97597,8.313678 7.4117,-3.38471 8.62313,-6.99651 3.77468,-7.8859 9.16733,-14.9929 15.64412,-20.8527 0.66458,4.2695 -6.9682,12.2929 -7.77713,18.49389 -3.79016,14.17499 -5.36175,31.039508 4.15349,43.387798 8.402,11.07281 25.44266,14.63392 37.055,6.5315 14.21344,-10.03458 18.23155,-29.55909 14.72104,-45.817788 -0.14793,-4.93551 -4.4555,-10.6641 -3.54976,-14.71 17.04606,6.68109 32.364348,17.49069 45.472698,30.218188 3.05816,5.32791 -5.19832,10.17132 -7.73861,14.60981 -4.30247,5.18949 -9.70738,9.4791 -13.57617,14.98859 0.52917,5.1879 4.19047,6.1168 7.2149,4.459 11.96033,-4.44378 13.72661,-12.54749 22.67691,-20.30749 -2.04266,-5.4262 -2.50682,-7.8681 -4.68971,-16.18641 -13.36115,-13.444478 -5.83219,-11.254688 -20.54032,-23.201488 -18.019428,-13.2109 -39.063278,-22.4421 -61.018658,-26.5949 -3.60357,-0.5796 -7.25347,-0.9122 -10.90556,-0.859 z m 30.71875,24.5781 c 4.16357,2.7492 7.38809,9.20381 5.42801,13.84481 -5.31038,2.83308 -10.9886,-5.46881 -9.04443,-10.48521 0.53718,-1.6078 1.78505,-3.2513 3.61642,-3.3596 z m -18.125,8.99799 c 5.17831,2.2302 7.65316,8.2346 8.84481,13.38752 2.13024,5.762888 -2.25384,16.164978 -9.11095,10.007888 -8.26848,-10.451198 -5.70118,-15.929188 -5.47787,-16.814118 0.83338,-2.72777 2.4847,-6.37518 5.74401,-6.58129 z m -9.14474,25.072918 c 4.57502,3.2494 4.51535,7.84029 11.97612,5.14519 4.75966,0.053 10.73278,-6.7252 11.8314,-7.34639 -0.15934,4.14387 -5.42329,12.34749 -1.08724,14.12219 3.0464,-2.22089 6.31435,-10.06491 7.64378,-9.82869 -1.03557,10.57597 -8.3818,21.89459 -19.52282,23.43129 -7.9737,0.048 -12.29551,-7.74671 -14.56459,-14.32899 -1.55441,-3.53132 -2.17955,-5.25632 -0.72477,-6.71661 2.29162,2.6964 2.35818,6.5029 6.23896,3.3137 -0.19588,-4.37351 -3.13937,-3.45369 -1.79084,-7.79169 z"
       id="path1082"
       inkscape:connector-curvature="0"
       sodipodi:nodetypes="ccccccccccccccccccccccccccccccccccccccc" />
    <path
       style="display:inline;opacity:1;fill:#000000;fill-opacity:1;fill-rule:evenodd;stroke:#000000;stroke-width:0.26458332px;stroke-linecap:butt;stroke-linejoin:miter;stroke-opacity:1"
       d="m 106.97653,-65.107062 c 0.49961,0.095 0.88506,0.27998 1.30016,0.48749 0.10245,0.051 0.29731,0.027 0.4063,0.081 0.0685,0.034 0.094,0.1283 0.16253,0.16251 0.048,0.0241 0.56867,0.081 0.56883,0.081 0.019,0.019 -0.019,0.062 0,0.081 0.0724,0.072 0.23873,0.038 0.32504,0.081 0.0342,0.0169 0.047,0.064 0.0813,0.081 0.0485,0.0241 0.11406,-0.0241 0.16251,0 0.0343,0.0169 0.047,0.064 0.0813,0.081 0.0243,0.0119 0.0621,-0.019 0.0813,0 0.019,0.019 -0.019,0.062 0,0.081 0.044,0.044 0.42873,0.10371 0.48755,0.1625 0.019,0.019 -0.019,0.062 0,0.081 0.031,0.031 0.64204,0.2803 0.73133,0.32499 0.0975,0.049 0.14629,0.19499 0.24379,0.24381 0.0493,0.0249 0.20974,0.047 0.24379,0.081 0.019,0.0191 -0.019,0.062 0,0.081 0.004,0 0.2994,0.1497 0.32504,0.1625 0.15277,0.076 0.26556,0.2312 0.40629,0.32502 0.0713,0.048 0.18323,0.0209 0.24379,0.081 0.16812,0.16809 -0.25694,-0.0101 0.0813,0.1625 0.14066,0.07 0.21432,0.18839 0.32504,0.24379 0.0485,0.0241 0.11407,-0.0241 0.16254,0 0.18875,0.094 0.30056,0.31282 0.48755,0.4063 0.0243,0.0119 0.057,-0.0119 0.0813,0 0.12277,0.061 0.1959,0.28202 0.32504,0.32512 0.0514,0.0169 0.11112,-0.0169 0.16253,0 0.0963,0.032 0.1524,0.19809 0.24379,0.24368 0.31605,0.15811 0.50705,0.52771 0.81259,0.73141 0.0504,0.034 0.1197,0.038 0.16253,0.081 0.019,0.019 -0.019,0.062 0,0.081 0.0428,0.043 0.11967,0.038 0.16251,0.081 0.019,0.019 -0.0122,0.057 0,0.081 0.0343,0.068 0.10835,0.1084 0.16253,0.16259 0.0271,0.027 0.0542,0.054 0.0813,0.081 0.0271,0 0.0621,-0.019 0.0813,0 0.0499,0.05 0.0537,0.18941 0.16253,0.24381 0.0243,0.0119 0.0621,-0.019 0.0813,0 0.0499,0.05 0.0537,0.18939 0.1625,0.24379 0.0243,0.0119 0.0621,-0.019 0.0813,0 0.019,0.019 -0.0122,0.057 0,0.081 0.0487,0.097 0.195,0.14629 0.24376,0.24379 0.0122,0.0241 -0.0191,0.062 0,0.081 0.0288,0.029 0.19074,0.083 0.24379,0.16251 0.10983,0.16468 0.24551,0.32848 0.32504,0.48758 0.048,0.096 0.18402,0.15411 0.24379,0.2437 0.0475,0.071 0.0206,0.1832 0.0813,0.24382 0.019,0.019 0.0621,-0.0191 0.0813,0 0.14076,0.14068 0.24521,0.4092 0.32504,0.5688 0.0488,0.098 0.19502,0.14629 0.24378,0.24378 0.0639,0.1279 0.15344,0.27081 0.24379,0.4063 0.10031,0.15052 0.32578,0.24532 0.4063,0.40632 0.21518,0.4304 0.49736,0.66969 0.73133,1.13758 0.0343,0.069 0.12827,0.094 0.16253,0.16261 0.0417,0.083 0.0396,0.2417 0.0813,0.32499 0.0473,0.095 0.1152,0.14912 0.1625,0.24381 0.0325,0.065 -0.0325,0.1787 0,0.24379 0.0721,0.14422 0.17167,0.26201 0.24379,0.40632 0.0363,0.073 -0.0257,0.16668 0,0.24368 0.0476,0.14271 0.17587,0.27051 0.24379,0.4064 0.0241,0.048 -0.0172,0.1111 0,0.16251 0.0659,0.1978 0.15938,0.31869 0.24379,0.48749 0.0997,0.19942 0.0968,0.45291 0.1625,0.65011 0.027,0.081 0.13555,0.1629 0.16254,0.24379 0.0172,0.051 -0.0241,0.114 0,0.1625 0.0122,0.0241 0.0621,-0.019 0.0813,0 0.0383,0.038 -0.0172,0.1111 0,0.16251 0.0505,0.15161 0.10123,0.20249 0.16253,0.32509 0.039,0.078 -0.0259,0.24702 0,0.32502 0.0122,0.036 0.0641,0.047 0.0813,0.081 0.0433,0.087 -0.0433,0.23831 0,0.32501 0.0172,0.034 0.0641,0.047 0.0813,0.081 0.0542,0.10829 -0.0542,0.29789 0,0.40629 0.0473,0.095 0.1152,0.1491 0.16253,0.24382 0.0433,0.087 -0.0433,0.23828 0,0.32498 0.0172,0.034 0.0641,0.047 0.0813,0.081 0.0542,0.10829 -0.0542,0.29789 0,0.40619 0.0172,0.034 0.0641,0.047 0.0813,0.081 0.0515,0.103 0,0.36991 0,0.4876 0,0.077 0.0491,0.43852 0,0.48752 -0.019,0.0191 -0.0621,-0.019 -0.0813,0 -0.0193,0.0191 0.0122,0.057 0,0.081 -0.0554,0.1107 -0.17346,0.18439 -0.24379,0.32499 -0.1691,0.33821 0.006,-0.087 -0.16251,0.081 -0.0193,0.019 0.019,0.062 0,0.081 -0.0406,0.041 -0.12192,0.041 -0.16253,0.081 -0.0193,0.019 0.019,0.062 0,0.081 -0.0433,0.043 -0.36298,0.1192 -0.4063,0.16251 -0.0193,0.019 0.0193,0.062 0,0.081 -0.0193,0.0191 -0.057,-0.0119 -0.0813,0 -0.0343,0.0169 -0.047,0.064 -0.0813,0.081 -0.0485,0.0241 -0.12419,-0.038 -0.16251,0 -0.0193,0.019 0.019,0.062 0,0.081 -0.0724,0.072 -0.23876,0.038 -0.32504,0.081 -0.49712,0.24858 -0.94567,0.24379 -1.54395,0.24379 -0.17713,0 -0.57634,0.077 -0.73133,0 -0.0343,-0.0169 -0.047,-0.064 -0.0812,-0.081 -0.0867,-0.043 -0.23837,0.043 -0.32504,0 -0.0343,-0.0169 -0.0449,-0.069 -0.0813,-0.081 -0.0771,-0.0259 -0.17108,0.036 -0.24377,0 -0.0343,-0.0169 -0.047,-0.064 -0.0813,-0.081 -0.1466,-0.073 -0.7253,-0.15639 -0.81258,-0.24381 -0.019,-0.019 0.0191,-0.062 0,-0.081 -0.0383,-0.038 -0.12423,0.038 -0.16254,0 -0.019,-0.019 0.019,-0.062 0,-0.081 -0.0206,-0.0209 -0.30392,-0.1414 -0.32504,-0.16248 -0.0406,-0.041 -0.0406,-0.12192 -0.0813,-0.16251 -0.019,-0.019 -0.057,0.0119 -0.0812,0 -0.0975,-0.049 -0.14627,-0.195 -0.24379,-0.24381 -0.0243,-0.0119 -0.0621,0.019 -0.0813,0 -0.019,-0.019 0.019,-0.062 0,-0.081 -0.16814,-0.1682 0.007,0.25691 -0.16253,-0.081 -0.0122,-0.0241 0.019,-0.062 0,-0.081 -0.019,-0.019 -0.0621,0.019 -0.0813,0 -0.019,-0.019 0.019,-0.062 0,-0.081 -0.019,-0.019 -0.057,0.0119 -0.0813,0 -0.10885,-0.054 -0.1126,-0.19391 -0.16253,-0.24381 -0.019,-0.019 -0.0621,0.019 -0.0813,0 -0.019,-0.019 0.0191,-0.062 0,-0.081 -0.0406,-0.041 -0.1219,-0.041 -0.16251,-0.081 -0.019,-0.019 0.0122,-0.057 0,-0.081 -0.065,-0.12999 -0.26003,-0.195 -0.32504,-0.32499 -0.0122,-0.0241 0.0191,-0.062 0,-0.081 -0.019,-0.019 -0.0621,0.019 -0.0813,0 -0.0407,-0.041 -0.028,-0.2718 -0.0813,-0.32498 -0.019,-0.0191 -0.0621,0.019 -0.0813,0 -0.0383,-0.038 0.0383,-0.1242 0,-0.16251 -0.019,-0.0191 -0.0621,0.019 -0.0813,0 -0.0563,-0.056 -0.0249,-0.34999 -0.0812,-0.4063 -0.0191,-0.019 -0.0621,0.019 -0.0813,0 -0.008,-0.01 -0.0642,-0.37221 -0.0813,-0.40629 -0.0587,-0.11742 -0.10385,-0.2078 -0.16251,-0.32512 -0.0243,-0.048 0.0244,-0.11409 0,-0.16248 -0.0473,-0.095 -0.1152,-0.14912 -0.16253,-0.24381 -0.0567,-0.1133 -0.0246,-0.2929 -0.0813,-0.4063 -0.19032,-0.3806 -0.37142,-0.74279 -0.56883,-1.1376 -0.0552,-0.11049 -0.18854,-0.2146 -0.24379,-0.32509 -0.0758,-0.15161 0.0759,-0.41712 0,-0.56881 -0.0172,-0.034 -0.0641,-0.047 -0.0813,-0.081 -0.0426,-0.085 0.0649,-0.3415 0,-0.4064 -0.019,-0.019 -0.0621,0.019 -0.0812,0 -0.0328,-0.033 -0.0371,-0.3991 -0.0813,-0.4875 -0.12607,-0.25209 -0.28024,-0.47918 -0.40632,-0.7313 -0.0243,-0.048 0.0383,-0.12428 0,-0.16259 -0.019,-0.019 -0.0621,0.019 -0.0813,0 -0.008,-0.0101 -0.0642,-0.37211 -0.0813,-0.4063 -0.0172,-0.034 -0.0641,-0.047 -0.0813,-0.081 -0.0431,-0.086 -0.009,-0.2526 -0.0813,-0.32509 -0.019,-0.019 -0.0621,0.019 -0.0813,0 -0.0383,-0.038 0.0243,-0.11401 0,-0.16251 -0.0549,-0.1098 -0.1098,-0.21958 -0.16251,-0.32499 -0.0343,-0.069 -0.12827,-0.094 -0.16253,-0.16251 -0.0502,-0.10038 -0.11235,-0.22479 -0.16251,-0.32509 -0.0488,-0.097 -0.19502,-0.14631 -0.24379,-0.24381 -0.0122,-0.0241 0.019,-0.062 0,-0.081 -0.0428,-0.043 -0.1197,-0.038 -0.1625,-0.081 -0.0241,-0.0241 -0.11925,-0.26281 -0.24379,-0.32502 -0.0243,-0.0119 -0.0621,0.019 -0.0813,0 -0.15721,-0.15718 -0.26707,-0.4586 -0.48757,-0.5688 -0.0243,-0.0119 -0.0621,0.019 -0.0813,0 -0.019,-0.019 0.0191,-0.062 0,-0.081 -0.0406,-0.041 -0.1219,-0.041 -0.16254,-0.081 -0.16811,-0.16809 0.25694,0.01 -0.0813,-0.16248 -0.19106,-0.095 -0.31366,-0.3193 -0.48755,-0.40632 -0.0243,-0.0119 -0.0621,0.019 -0.0813,0 -0.019,-0.019 0.019,-0.062 0,-0.081 -0.019,-0.019 -0.057,0.0119 -0.0813,0 -0.0685,-0.034 -0.094,-0.12819 -0.16251,-0.16251 -0.0703,-0.035 -0.3619,-0.11808 -0.40632,-0.16251 -0.16812,-0.16808 0.25694,0.0101 -0.0813,-0.16248 -0.0695,-0.035 -0.17428,-0.046 -0.24379,-0.081 -0.0975,-0.049 -0.14626,-0.195 -0.24376,-0.24379 -0.20016,-0.10001 0.0733,0.2359 -0.24379,-0.081 -0.019,-0.019 0.019,-0.062 0,-0.081 -0.0428,-0.043 -0.11969,-0.038 -0.16253,-0.081 -0.0428,-0.043 -0.0384,-0.1197 -0.0813,-0.16251 -0.019,-0.019 -0.057,0.0119 -0.0813,0 -0.11856,-0.059 -0.83457,-0.77541 -0.89387,-0.89389 -0.0867,-0.17341 -0.25601,-0.26832 -0.32504,-0.40632 -0.0803,-0.16058 -0.12975,-0.3165 -0.24378,-0.4876 -0.0425,-0.064 -0.12825,-0.094 -0.16251,-0.16249 -0.0456,-0.091 -0.0342,-0.2309 -0.0812,-0.32501 -0.0343,-0.069 -0.12827,-0.094 -0.16254,-0.16259 -0.0246,-0.049 0.0376,-0.20621 0,-0.24381 -0.019,-0.019 -0.0621,0.019 -0.0813,0 -0.0724,-0.072 -0.0381,-0.23868 -0.0813,-0.32499 -0.0172,-0.034 -0.0641,-0.047 -0.0813,-0.081 -0.0338,-0.068 0.0515,-0.2735 0,-0.3251 -0.019,-0.0191 -0.0621,0.019 -0.0813,0 -0.0658,-0.066 0,-0.5467 0,-0.6501 0,-0.077 -0.049,-0.4385 0,-0.4875 0.019,-0.019 0.0621,0.019 0.0813,0 0.0383,-0.038 -0.0383,-0.12419 0,-0.16248 0.0406,-0.041 0.12187,-0.041 0.16251,-0.081 0.019,-0.019 -0.019,-0.062 0,-0.081 0.0271,-0.027 0.21669,-0.054 0.24379,-0.081 0.019,-0.019 -0.0191,-0.062 0,-0.081 0.0677,-0.068 0.2573,-0.014 0.32504,-0.081 0.0406,-0.041 0.0406,-0.1219 0.0813,-0.16259 0.0383,-0.038 0.10835,0 0.16253,0 0.34319,0 0.63813,0 0.97512,-0.081 z"
       id="path1115"
       inkscape:connector-curvature="0" />
    <path
       style="display:inline;opacity:1;fill:#000000;fill-opacity:1;fill-rule:evenodd;stroke:#000000;stroke-width:0.26458332px;stroke-linecap:butt;stroke-linejoin:miter;stroke-opacity:1"
       d="m 11.736662,-152.83197 c 0.28187,0.2558 0.55884,0.5399 0.89387,0.7313 0.1791,0.1024 0.39193,0.1377 0.56882,0.2438 0.0657,0.039 0.10834,0.1084 0.16252,0.1625 0.13543,0.081 0.26503,0.1732 0.4063,0.2438 0.26436,0.1322 0.25468,0.011 0.48756,0.2438 0.0691,0.069 0.0935,0.1747 0.16252,0.2438 0.0428,0.043 0.11406,0.045 0.16252,0.081 0.19578,0.1468 0.36587,0.3523 0.56881,0.4876 0.18182,0.1212 0.38621,0.2033 0.56883,0.325 0.32688,0.218 0.68506,0.662 0.89386,0.9751 0.0833,0.1251 0.2417,0.2001 0.32504,0.3251 0.0892,0.1338 0.1546,0.2725 0.24378,0.4063 0.0833,0.125 0.2417,0.2 0.32504,0.325 0.0867,0.1301 0.15016,0.2815 0.24378,0.4063 0.0879,0.1172 0.24308,0.2021 0.32504,0.3251 0.65777,0.9866 1.52003,1.8211 2.0315,2.8441 0.0433,0.087 -0.0433,0.076 0,0.1625 0.0697,0.1394 0.18853,0.2405 0.24378,0.4063 0.0171,0.051 -0.0242,0.1141 0,0.1625 0.0403,0.081 0.13447,0.1596 0.16252,0.2438 0.0257,0.077 -0.0363,0.1711 0,0.2438 0.0393,0.079 0.13713,0.2488 0.16252,0.325 0.0171,0.051 -0.0171,0.1111 0,0.1625 0.027,0.081 0.13555,0.1629 0.16252,0.2438 0.0171,0.051 -0.0171,0.1111 0,0.1625 0.026,0.078 0.11545,0.1732 0.16253,0.2438 0.2366,0.3549 -0.036,-0.027 0.0812,0.325 0.0242,0.073 0.12826,0.094 0.16252,0.1626 0.10931,0.2186 0.24323,0.4859 0.32504,0.7313 0.009,0.026 0,0.054 0,0.081 0,0.054 -0.0171,0.1111 0,0.1625 0.0121,0.036 0.0692,0.045 0.0813,0.081 0.0171,0.051 -0.0131,0.1099 0,0.1625 0.0492,0.1966 0.0981,0.3755 0.16251,0.5688 0.0244,0.073 -0.0244,0.1706 0,0.2438 0.0121,0.036 0.0692,0.045 0.0813,0.081 0.065,0.1951 -0.05,0.45 0,0.6501 0.0147,0.059 0.0666,0.1038 0.0813,0.1625 0.0197,0.079 -0.0257,0.1667 0,0.2438 0.0763,0.229 0.0375,0.3562 0.0813,0.4876 0.0121,0.036 0.0691,0.045 0.0813,0.081 0.065,0.1951 -0.065,0.4551 0,0.6501 0.0121,0.036 0.0641,0.047 0.0813,0.081 0.0863,0.1726 0,0.9975 0,1.2189 0,0.077 0.0491,0.4385 0,0.4875 -0.0192,0.019 -0.0621,-0.019 -0.0813,0 -0.0383,0.038 0.0242,0.1141 0,0.1626 -0.0171,0.034 -0.0641,0.047 -0.0813,0.081 -0.0242,0.048 0.0242,0.1141 0,0.1625 -0.17898,0.358 -0.53843,0.5385 -0.81261,0.8126 -0.12422,0.1243 -0.51952,0.5253 -0.65008,0.5689 -0.0514,0.017 -0.11112,-0.017 -0.16252,0 -0.0975,0.033 -0.14626,0.2112 -0.24378,0.2437 -0.14545,0.049 -0.25659,0.044 -0.4063,0.081 -0.17041,0.043 -0.31554,0.2094 -0.48756,0.2438 -0.0797,0.016 -0.1641,-0.016 -0.24378,0 -0.11878,0.024 -0.20625,0.1387 -0.32504,0.1625 -0.1328,0.027 -0.2735,-0.027 -0.4063,0 -0.52633,0.1053 -1.18985,0.1722 -1.70646,0 -0.094,-0.031 -0.23772,0.044 -0.32504,0 -0.19501,-0.098 -0.37537,-0.2283 -0.56882,-0.325 -0.10672,-0.053 -0.11955,-0.2391 -0.16252,-0.3251 -0.16909,-0.3382 0.006,0.087 -0.16252,-0.081 -0.0192,-0.019 0.0121,-0.057 0,-0.081 -0.16909,-0.3382 0.006,0.087 -0.16252,-0.081 -0.0192,-0.019 0.0121,-0.057 0,-0.081 -0.11039,-0.2208 -0.37862,-0.351 -0.48756,-0.5688 -0.1643,-0.3286 -0.12217,-0.7728 -0.24378,-1.1377 -0.0426,-0.1277 -0.0473,-1.6932 0,-1.7877 0.0171,-0.034 0.0641,-0.047 0.0813,-0.081 0.0852,-0.1704 0,-0.6102 0,-0.8126 0,-0.2479 0.086,-0.9655 0,-1.1376 -0.13234,-0.2647 -0.19278,-0.5481 -0.32504,-0.8126 -0.0803,-0.1607 -0.0822,-0.4081 -0.16252,-0.5688 -0.0325,-0.065 -0.13002,-0.098 -0.16252,-0.1625 -0.0787,-0.1575 -0.23995,-0.3174 -0.32505,-0.4876 -0.0121,-0.024 0,-0.054 0,-0.081 -0.0271,-0.054 -0.0477,-0.1121 -0.0813,-0.1625 -0.0829,-0.1243 -0.36539,-0.3648 -0.40631,-0.4876 -0.0171,-0.051 0.0171,-0.1111 0,-0.1625 -0.0576,-0.1727 -0.32353,-0.322 -0.4063,-0.4875 -0.0121,-0.024 0,-0.054 0,-0.081 -0.0271,-0.054 -0.0477,-0.1121 -0.0813,-0.1625 -0.0425,-0.064 -0.13829,-0.09 -0.16252,-0.1625 -0.0171,-0.051 0.0171,-0.1112 0,-0.1626 -0.0363,-0.109 -0.17483,-0.1518 -0.24378,-0.2437 -0.2463,-0.3284 -0.0129,-0.039 -0.0813,-0.2438 -0.0768,-0.2303 -0.42782,-0.8449 -0.56882,-1.0564 -0.20764,-0.3115 -0.36042,-0.6625 -0.56882,-0.9751 -0.10207,-0.1531 -0.27079,-0.3248 -0.32504,-0.4876 -0.0172,-0.051 0.0171,-0.1111 0,-0.1625 -0.0165,-0.05 -0.14599,-0.1942 -0.16252,-0.2438 -0.0411,-0.1232 -0.13031,-0.2774 -0.16252,-0.4063 -0.0131,-0.052 0.0171,-0.1111 0,-0.1625 -0.0121,-0.036 -0.0692,-0.045 -0.0813,-0.081 -0.0343,-0.1027 0.0343,-0.2222 0,-0.325 -0.0121,-0.036 -0.0641,-0.047 -0.0813,-0.081 -0.0363,-0.073 0.0197,-0.165 0,-0.2438 -0.0147,-0.059 -0.0621,-0.1051 -0.0813,-0.1625 -0.0325,-0.098 0.0325,-0.2276 0,-0.3251 -0.0121,-0.036 -0.0542,-0.054 -0.0813,-0.081 0,-0.054 0.0171,-0.1111 0,-0.1625 -0.0242,-0.073 -0.1383002,-0.09 -0.1625202,-0.1625 -0.0343,-0.1028 0.0343,-0.2223 0,-0.325 -0.0121,-0.036 -0.0692,-0.045 -0.0813,-0.081 -0.0569,-0.1707 0.0569,-0.3982 0,-0.5688 -0.0536,-0.1607 -0.095,-0.2713 -0.16252,-0.4063 -0.0839,-0.1678 0.0458,-0.4668 0,-0.6501 -0.0147,-0.059 -0.0621,-0.1051 -0.0813,-0.1625 -0.0371,-0.1115 0.0155,-1.0719 0.0813,-1.1377 0.0191,-0.019 0.0621,0.019 0.0812,0 0.0192,-0.019 -0.0191,-0.062 0,-0.081 0.0192,-0.019 0.057,0.012 0.0813,0 0.0947,-0.047 0.14912,-0.1152 0.2437802,-0.1626 0.0485,-0.024 0.11407,0.024 0.16253,0 0.0947,-0.047 0.14912,-0.1151 0.24378,-0.1625 0.0485,-0.024 0.12421,0.038 0.16252,0 0.0191,-0.019 -0.0192,-0.062 0,-0.081 0.0813,-0.081 0.32504,0 0.4063,-0.081 0.0191,-0.019 -0.0192,-0.062 0,-0.081 0.0376,-0.038 0.19472,0.025 0.24378,0 0.0538,-0.027 0.0759,-0.1333 0.16252,-0.081 0.11613,0.07 0.21669,0.1625 0.32504,0.2438 z"
       id="path1117"
       inkscape:connector-curvature="0" />
    <path
       style="display:inline;opacity:1;fill:#000000;fill-opacity:1;fill-rule:evenodd;stroke:#000000;stroke-width:0.26458332px;stroke-linecap:butt;stroke-linejoin:miter;stroke-opacity:1"
       d="m 26.089302,-159.08167 c 0.16772,0.3417 0.32046,0.7079 0.56133,1.0093 0.12874,0.1612 0.31357,0.2725 0.43889,0.4363 0.0467,0.061 0.0608,0.1407 0.0912,0.211 0.096,0.1252 0.18252,0.2587 0.28781,0.3764 0.19701,0.2204 0.23269,0.1041 0.36335,0.4064 0.0388,0.09 0.0225,0.1968 0.0612,0.2865 0.024,0.056 0.0894,0.084 0.12121,0.1352 0.12788,0.2087 0.21024,0.4624 0.34902,0.663 0.12433,0.1796 0.28406,0.3313 0.40896,0.5118 0.2235,0.3231 0.39278,0.8679 0.47146,1.2359 0.0313,0.147 0.15091,0.2751 0.1823,0.422 0.0336,0.1573 0.0433,0.3103 0.0768,0.4676 0.0314,0.1469 0.15095,0.275 0.18235,0.4219 0.0327,0.1529 0.0358,0.317 0.0768,0.4676 0.0385,0.1413 0.15146,0.2774 0.18231,0.422 0.24775,1.1596 0.74167,2.2532 0.84001,3.3927 0.008,0.097 -0.0683,0.055 -0.0599,0.151 0.0134,0.1553 0.0866,0.2931 0.0768,0.4676 -0.003,0.054 -0.0646,0.097 -0.0599,0.151 0.008,0.09 0.0662,0.198 0.0612,0.2866 -0.005,0.081 -0.0968,0.1456 -0.0899,0.2266 0.007,0.088 0.0358,0.2818 0.0313,0.362 -0.003,0.054 -0.0569,0.097 -0.0599,0.1511 -0.005,0.085 0.066,0.2014 0.0612,0.2865 -0.003,0.054 -0.0569,0.097 -0.0599,0.1511 -0.005,0.082 0.0435,0.2035 0.0612,0.2865 0.0891,0.4171 -0.0235,-0.038 -0.0443,0.3321 -0.004,0.077 0.0846,0.1346 0.0911,0.211 0.021,0.2435 0.047,0.5414 0.0326,0.7997 -0.002,0.027 -0.0199,0.05 -0.0299,0.075 -0.0199,0.05 -0.0569,0.097 -0.0599,0.151 -0.002,0.038 0.0477,0.067 0.0457,0.1053 -0.003,0.054 -0.0527,0.097 -0.0599,0.151 -0.0268,0.2009 -0.0472,0.3852 -0.0586,0.5887 -0.004,0.077 -0.0855,0.1496 -0.0899,0.2266 -0.002,0.038 0.0477,0.067 0.0457,0.1052 -0.0115,0.2054 -0.2124,0.3999 -0.23965,0.6044 -0.008,0.06 0.0236,0.121 0.0156,0.181 -0.0108,0.081 -0.0853,0.1455 -0.0899,0.2266 -0.0135,0.241 -0.0965,0.3449 -0.1042,0.4832 -0.002,0.038 0.0477,0.067 0.0457,0.1053 -0.0115,0.2053 -0.2282,0.3991 -0.23965,0.6043 -0.002,0.038 0.0423,0.067 0.0457,0.1052 0.0166,0.1923 -0.36771,0.9273 -0.44932,1.1331 -0.0284,0.072 -0.11604,0.4257 -0.17971,0.4532 -0.0248,0.011 -0.0507,-0.041 -0.0755,-0.03 -0.0496,0.021 -0.0195,0.115 -0.0599,0.1512 -0.0285,0.025 -0.0769,0.02 -0.1054,0.045 -0.0402,0.036 -0.0195,0.115 -0.0599,0.1511 -0.29834,0.2668 -0.69902,0.3021 -1.05492,0.4558 -0.1613,0.07 -0.67659,0.2968 -0.81402,0.2892 -0.054,0 -0.097,-0.057 -0.15107,-0.06 -0.10281,-0.01 -0.21382,0.1424 -0.31645,0.1366 -0.15327,-0.01 -0.25474,-0.054 -0.40755,-0.074 -0.17426,-0.023 -0.3705,0.078 -0.54309,0.047 -0.08,-0.014 -0.14664,-0.075 -0.22662,-0.09 -0.11926,-0.022 -0.24286,0.053 -0.36205,0.031 -0.1334,-0.024 -0.24428,-0.1259 -0.37768,-0.1497 -0.52808,-0.096 -1.16954,-0.2786 -1.58629,-0.6291 -0.076,-0.063 -0.2372,-0.047 -0.30215,-0.1198 -0.14515,-0.163 -0.26477,-0.3506 -0.40896,-0.5118 -0.0797,-0.089 -0.023,-0.2663 -0.0312,-0.3621 -0.0325,-0.3767 -0.0269,0.083 -0.12121,-0.1352 -0.0108,-0.025 0.0323,-0.049 0.0299,-0.075 -0.0325,-0.3767 -0.0269,0.083 -0.12121,-0.1352 -0.0108,-0.025 0.0323,-0.049 0.0299,-0.075 -0.0212,-0.246 -0.22257,-0.4659 -0.24355,-0.7085 -0.0316,-0.366 0.17132,-0.7634 0.19278,-1.1474 0.007,-0.1344 0.58023,-1.5914 0.659,-1.6618 0.0284,-0.025 0.0769,-0.02 0.1054,-0.045 0.14202,-0.127 0.22494,-0.5672 0.29955,-0.7554 0.0914,-0.2304 0.43588,-0.8658 0.41935,-1.0574 -0.0254,-0.2949 0.0228,-0.5806 -0.003,-0.8752 -0.0155,-0.179 0.074,-0.4097 0.0586,-0.5887 -0.006,-0.072 -0.0847,-0.139 -0.0912,-0.211 -0.0151,-0.1754 -0.10604,-0.3835 -0.12241,-0.573 -0.002,-0.027 0.0199,-0.05 0.0299,-0.075 -0.005,-0.06 -0.003,-0.1218 -0.0156,-0.181 -0.0312,-0.1461 -0.20518,-0.4739 -0.19795,-0.6031 0.003,-0.054 0.0569,-0.097 0.0599,-0.151 0.0102,-0.1818 -0.18205,-0.4186 -0.19798,-0.603 -0.002,-0.027 0.0199,-0.05 0.0299,-0.075 -0.005,-0.06 -0.003,-0.1218 -0.0156,-0.181 -0.0159,-0.075 -0.0954,-0.1346 -0.0912,-0.211 0.003,-0.054 0.0569,-0.097 0.0599,-0.1511 0.006,-0.1147 -0.10656,-0.2056 -0.13678,-0.3164 -0.10791,-0.3961 0.002,-0.041 0.0143,-0.2566 0.0135,-0.2424 -0.0862,-0.9431 -0.13935,-1.1917 -0.0782,-0.3661 -0.0908,-0.7487 -0.1693,-1.1161 -0.0385,-0.1799 -0.13199,-0.4017 -0.12241,-0.5731 0.003,-0.054 0.0569,-0.097 0.0599,-0.151 0.003,-0.053 -0.0641,-0.2344 -0.0612,-0.2866 0.007,-0.1296 -0.0189,-0.3059 -0.001,-0.4376 0.007,-0.053 0.0569,-0.097 0.0599,-0.151 0.002,-0.038 -0.0477,-0.067 -0.0457,-0.1053 0.006,-0.1081 0.11376,-0.1939 0.11981,-0.3021 0.002,-0.038 -0.0423,-0.067 -0.0457,-0.1052 -0.007,-0.081 0.0791,-0.1462 0.0899,-0.2267 0.008,-0.06 -0.019,-0.1206 -0.0156,-0.181 0.006,-0.1031 0.11411,-0.1996 0.11985,-0.3022 0.002,-0.038 -0.0305,-0.07 -0.0457,-0.1052 0.0199,-0.05 0.0569,-0.097 0.0599,-0.1511 0.004,-0.077 -0.0954,-0.1346 -0.0912,-0.211 0.006,-0.1082 0.11379,-0.194 0.1198,-0.3021 0.002,-0.038 -0.0477,-0.067 -0.0457,-0.1052 0.0101,-0.1797 0.19967,-0.3492 0.20968,-0.5288 0.009,-0.1691 0.0117,-0.2872 -0.001,-0.4376 -0.0161,-0.1869 0.21468,-0.417 0.23965,-0.6043 0.008,-0.06 -0.019,-0.1206 -0.0156,-0.181 0.007,-0.1173 0.40949,-0.9907 0.49493,-1.0276 0.0248,-0.011 0.0507,0.041 0.0755,0.03 0.0248,-0.011 0.005,-0.065 0.0299,-0.075 0.0248,-0.011 0.0486,0.032 0.0755,0.03 0.10532,-0.01 0.18108,-0.052 0.28655,-0.061 0.0539,0 0.0972,0.064 0.15107,0.06 0.10532,-0.01 0.18106,-0.052 0.28652,-0.061 0.0539,0 0.10146,0.081 0.15108,0.06 0.0248,-0.011 0.005,-0.065 0.0299,-0.075 0.1054,-0.045 0.30216,0.1199 0.40755,0.075 0.0248,-0.011 0.005,-0.065 0.0299,-0.075 0.0489,-0.021 0.17179,0.095 0.22661,0.09 0.06,-0.01 0.1197,-0.096 0.18094,-0.015 0.0821,0.1079 0.14153,0.2309 0.21227,0.34651 z"
       id="path1117-0"
       inkscape:connector-curvature="0" />
    <path
       style="display:inline;opacity:1;fill:#000000;fill-opacity:1;fill-rule:evenodd;stroke:#000000;stroke-width:0.26458332px;stroke-linecap:butt;stroke-linejoin:miter;stroke-opacity:1"
       d="m 108.79557,-42.011982 c 0.0441,-0.37809 0.0659,-0.7743 0.19235,-1.13879 0.0675,-0.19489 0.20465,-0.3615 0.26813,-0.55769 0.0235,-0.073 0.0103,-0.1529 0.0156,-0.22932 0.0487,-0.15009 0.0857,-0.3048 0.1457,-0.4509 0.11216,-0.2735 0.1846,-0.17579 0.20691,-0.5044 0.006,-0.098 -0.0445,-0.19299 -0.0379,-0.29049 0.004,-0.061 0.0563,-0.109 0.0691,-0.1679 0.0509,-0.2394 0.0439,-0.50599 0.10776,-0.74139 0.0573,-0.21082 0.15724,-0.40711 0.21474,-0.61902 0.10287,-0.37909 0.0806,-0.94919 0.032,-1.32228 -0.0196,-0.14912 0.0505,-0.30972 0.031,-0.45871 -0.0209,-0.15949 -0.0628,-0.30689 -0.0836,-0.46641 -0.0193,-0.14898 0.0505,-0.30959 0.0311,-0.4586 -0.0204,-0.15499 -0.072,-0.3108 -0.0836,-0.46638 -0.0108,-0.1461 0.0502,-0.3121 0.031,-0.45871 -0.15341,-1.17581 -0.0528,-2.37151 -0.34031,-3.4785 -0.0246,-0.094 -0.0827,-0.029 -0.10686,-0.1224 -0.0392,-0.15081 -0.0161,-0.30519 -0.0836,-0.46641 -0.0206,-0.05 -0.0932,-0.07 -0.10684,-0.12239 -0.023,-0.087 -0.004,-0.2087 -0.038,-0.29059 -0.0313,-0.075 -0.13988,-0.10491 -0.16033,-0.18362 -0.0225,-0.085 -0.0603,-0.27761 -0.0913,-0.35169 -0.0206,-0.05 -0.086,-0.072 -0.10689,-0.12239 -0.0329,-0.078 -0.005,-0.21191 -0.0379,-0.29052 -0.0206,-0.05 -0.086,-0.072 -0.10689,-0.1225 -0.0317,-0.076 -0.0269,-0.20629 -0.0379,-0.29049 -0.0552,-0.42291 -0.01,0.044 -0.15255,-0.29831 -0.0299,-0.071 0.0348,-0.1551 0.0156,-0.22929 -0.0614,-0.23651 -0.1364,-0.52599 -0.23617,-0.7647 -0.0106,-0.0249 -0.0354,-0.041 -0.0532,-0.061 -0.0355,-0.041 -0.086,-0.072 -0.10687,-0.1224 -0.0146,-0.035 0.0225,-0.079 0.008,-0.11448 -0.0206,-0.05 -0.082,-0.074 -0.10686,-0.1224 -0.0923,-0.18042 -0.17307,-0.34732 -0.25168,-0.53541 -0.0298,-0.071 -0.13057,-0.1124 -0.16033,-0.1836 -0.0146,-0.035 0.0225,-0.079 0.008,-0.1144 -0.0793,-0.18981 -0.33366,-0.3061 -0.42759,-0.4898 -0.0277,-0.054 -0.0183,-0.12189 -0.0457,-0.17581 -0.0372,-0.073 -0.12899,-0.10869 -0.16031,-0.1836 -0.0931,-0.2227 -0.20606,-0.293 -0.25951,-0.42079 -0.0145,-0.035 0.0225,-0.079 0.008,-0.11451 -0.0793,-0.18968 -0.3483,-0.29999 -0.42757,-0.48969 -0.0145,-0.035 0.0175,-0.077 0.008,-0.11441 -0.0485,-0.1868 -0.65606,-0.75139 -0.80169,-0.91818 -0.0508,-0.058 -0.25143,-0.36251 -0.32065,-0.36722 -0.027,0 -0.0341,0.056 -0.0612,0.053 -0.0538,0 -0.0568,-0.10189 -0.10695,-0.12258 -0.0352,-0.014 -0.0792,0.0101 -0.11438,-0.0101 -0.0499,-0.0201 -0.0568,-0.10192 -0.10689,-0.1225 -0.37026,-0.1519 -0.75975,-0.052 -1.14654,-0.078 -0.17542,-0.0119 -0.73687,-0.054 -0.86387,0 -0.051,0.018 -0.0725,0.086 -0.1224,0.107 -0.0936,0.044 -0.24907,-0.063 -0.3439,-0.023 -0.14113,0.061 -0.22212,0.13589 -0.35949,0.20579 -0.15658,0.08 -0.37528,0.05 -0.52763,0.1369 -0.0707,0.04 -0.11322,0.1197 -0.1836,0.16049 -0.10509,0.061 -0.24661,0.031 -0.35163,0.092 -0.11776,0.067 -0.18828,0.20021 -0.30609,0.2671 -0.46578,0.2668 -1.009518,0.65291 -1.285428,1.12241 -0.0506,0.085 -0.20791,0.12351 -0.24484,0.21381 -0.0824,0.20209 -0.13259,0.41878 -0.21471,0.61889 -0.0454,0.11049 0.0672,0.25871 0.0914,0.35179 0.0951,0.36592 -0.053,-0.069 -0.0691,0.1679 -0.003,0.027 0.0468,0.035 0.0532,0.061 0.095,0.36599 -0.053,-0.069 -0.0692,0.1679 -0.003,0.027 0.0468,0.035 0.0532,0.061 0.0621,0.23889 -0.0543,0.51339 0.007,0.74909 0.0923,0.3556 0.41624,0.66251 0.56462,1.01732 0.0519,0.12419 1.078038,1.30659 1.175778,1.3466 0.0352,0.014 0.0792,-0.0101 0.11438,0.0101 0.17626,0.072 0.40132,0.45958 0.53446,0.61209 0.16303,0.18671 0.69982,0.67069 0.74816,0.8569 0.0745,0.28649 0.21529,0.5397 0.28961,0.8259 0.0452,0.17391 0.20654,0.3615 0.2517,0.53541 0.018,0.07 -0.0335,0.15928 -0.0156,0.22929 0.0443,0.17039 0.028,0.3969 0.0758,0.581 0.007,0.0259 0.0355,0.041 0.0532,0.061 0.0151,0.058 0.0378,0.11589 0.0457,0.17589 0.0193,0.14809 -0.0353,0.5152 0.0145,0.63461 0.0209,0.05 0.086,0.072 0.10687,0.12229 0.0702,0.16801 -0.0319,0.4554 0.0145,0.6345 0.007,0.0259 0.0355,0.041 0.0532,0.061 0.0151,0.058 0.0378,0.11578 0.0457,0.17579 0.0101,0.076 -0.045,0.15869 -0.0156,0.22931 0.0206,0.05 0.086,0.072 0.10692,0.1225 0.0443,0.10589 -0.0318,0.22929 -0.0233,0.34388 0.0305,0.40942 0.0159,0.038 0.0991,0.23712 0.0937,0.224 0.23344,0.91779 0.26633,1.16988 0.0485,0.37121 0.16422,0.7361 0.21285,1.10861 0.0238,0.1824 0.01,0.4227 0.0759,0.5811 0.0206,0.05 0.086,0.072 0.10686,0.12229 0.0206,0.049 0.0177,0.24241 0.038,0.29062 0.05,0.11978 0.0843,0.29469 0.1448,0.41299 0.0241,0.048 0.086,0.072 0.10687,0.12229 0.0145,0.035 -0.0225,0.079 -0.008,0.11451 0.0417,0.10001 0.17195,0.14491 0.21376,0.24479 0.0145,0.035 -0.0175,0.077 -0.008,0.11452 0.0206,0.079 0.1234,0.11139 0.16039,0.1837 0.0276,0.054 0.0222,0.11998 0.0457,0.17579 0.0399,0.095 0.17417,0.15009 0.21381,0.24489 0.0145,0.035 -0.005,0.076 -0.008,0.11441 0.0354,0.041 0.086,0.072 0.10689,0.1225 0.0298,0.071 -0.045,0.1587 -0.0156,0.22929 0.0417,0.10001 0.17201,0.14491 0.21373,0.24482 0.0145,0.035 -0.0225,0.079 -0.008,0.1144 0.0695,0.166 0.30475,0.2626 0.37412,0.4285 0.0653,0.15629 0.10687,0.26688 0.14481,0.41299 0.0471,0.1815 0.34152,0.32141 0.42757,0.48971 0.0276,0.054 0.0222,0.11999 0.0457,0.17579 0.0454,0.1084 0.71663,0.7973 0.8095,0.80351 0.0271,0 0.0341,-0.056 0.0612,-0.053 0.0271,0 0.0265,0.06 0.0532,0.061 0.0271,0 0.0351,-0.046 0.0612,-0.053 0.10261,-0.0259 0.18804,-0.0111 0.29046,-0.038 0.0508,-0.018 0.0703,-0.093 0.1224,-0.10702 0.10263,-0.0259 0.18804,-0.0111 0.29046,-0.038 0.0508,-0.018 0.0686,-0.1102 0.1224,-0.107 0.0271,0 0.0265,0.06 0.0532,0.061 0.11435,0.0101 0.24482,-0.21381 0.35914,-0.20672 0.0271,0 0.0265,0.06 0.0532,0.061 0.0531,0 0.13023,-0.1469 0.1836,-0.1605 0.0599,-0.0111 0.14486,0.051 0.17555,-0.046 0.0414,-0.1292 0.0564,-0.2649 0.0845,-0.39751 z"
       id="path1117-0-2"
       inkscape:connector-curvature="0" />
  </g>
</svg>
